<svg xmlns="http://www.w3.org/2000/svg" viewBox="0 0 117.43 125.58">
    <g id="레이어_2" data-name="레이어 2">
        <g id="레이어_1-2" data-name="레이어 1">
            <path
                d="M85.87,30.31s.2-19.21-33.53-21.87-36.82,17-36.82,17L10,26.09S13-2.42,53.19.75,89.34,33.08,89.34,33.08Z"
                style="fill:#373838;stroke:#212222;stroke-miterlimit:10" />
            <path
                d="M101.79,93.44a42.12,42.12,0,0,1,3.1,11,7.22,7.22,0,0,1,1.73,2.07,1.55,1.55,0,0,1,.11,1.12,1,1,0,0,1-.91.73,1.4,1.4,0,0,1-.65-.15,3.16,3.16,0,0,1,0,2,.77.77,0,0,1-.68.38c-1,0-1.64-1.31-1.86-1.81-.15-.34-.28-.7-.42-1.06a2.49,2.49,0,0,1-1.64.85,1.34,1.34,0,0,1-1-.5,1.26,1.26,0,0,1-.24-.36c-.56-1.28,1-2.89,2-3.67a21.65,21.65,0,0,0-2-7.57C96.88,91,91.16,83.19,77.76,77.07l-1.29-.59,3.4-1.72.2,0a32.73,32.73,0,0,1,21.72,18.62Z"
                style="fill:#dd5837" />
            <path
                d="M78,76.51,80,75.46a31.71,31.71,0,0,1,21.22,18.2,41,41,0,0,1,3.07,11.12,7.8,7.8,0,0,1,1.76,2,.88.88,0,0,1,.08.62c-.31.88-1.41.07-2.16-1.06,0,0,1.3,3.65.41,3.67-.49,0-.89-.61-1.23-1.39s-.55-1.46-.77-2.08c0,0-1.55,2.18-2.43,1.19a.66.66,0,0,1-.12-.17c-.47-1.06,2-3.09,2-3.09a20.73,20.73,0,0,0-2-8.14C97.3,90.49,91.41,82.63,78,76.51m-3,0,2.58,1.18c13.21,6,18.82,13.69,21.21,19.07a20.89,20.89,0,0,1,1.86,7c-1.32,1.17-2.55,2.74-1.89,4.22a2.06,2.06,0,0,0,.36.56,2,2,0,0,0,1.51.73,2.33,2.33,0,0,0,1.36-.45l.09.22c.67,1.5,1.5,2.25,2.49,2.23a1.24,1.24,0,0,0,1.11-.64,2.3,2.3,0,0,0,.23-1.59h0a1.53,1.53,0,0,0,1.4-1.11,2.19,2.19,0,0,0-.13-1.61,7.54,7.54,0,0,0-1.72-2.15,42.2,42.2,0,0,0-3.1-11,32.82,32.82,0,0,0-22.23-19l-.39-.08-.32.17-2.08,1.06L75,76.49h0Z"
                style="fill:#212222" />
            <path d="M84.82,30.75,88,67.17s6.93.58,10.5-2.25,5.31-5.41,4.7-14.52-1.25-14.62-6.35-18.23-12-1.4-12-1.4Z"
                style="fill:#373838;stroke:#212222;stroke-miterlimit:10" />
            <path
                d="M71.16,37.48C67.54,43.7,70,52,70,52c-.13,10.35,4.66,12.74,4.66,12.74,3.16,7.75,11.22,5.6,11.22,5.6,8.85,1.44,9.71-8.94,9.71-8.94,4.2-4.3,1.57-11.94,1.57-11.94,2.76-5.17-1.88-11.05-1.88-11.05-.86-6.94-5.66-8.78-5.66-8.78-6.4-4.65-12.13.5-12.13.5C71.67,30.91,71.16,37.48,71.16,37.48Z"
                style="fill:#212222;stroke:#212222;stroke-miterlimit:10" />
            <path
                d="M36.2,175.06c-8.43,0-24.06-1.33-28.93-13.94C2.32,148.31,3.72,112.22,5.79,90,7.87,67.55,15.73,44.87,22.11,30.2c5.89-13.53,12.18-16.4,37.22-13S85.61,25,88.15,39.76c3,17.82-1.82,34.09,2.81,63.52C95,129.22,99.74,141,99.74,154.93s-9,20.15-20.15,20.15H36.2Z"
                style="fill:#dd5837;stroke:#212222;stroke-miterlimit:10" />
            <path d="M62.55,57.19c-4.43,0-7.58-5.32-5.67-7s8.86-1.65,11.34,0S67,57.19,62.55,57.19Z"
                style="fill:#212222;stroke:#212222;stroke-miterlimit:10" />
            <path
                d="M21,61.61c5.82.54,7.78-5.76,7.78-5.76C33.68,50.59,33.19,42,33.19,42c2.43-10.06-1.7-13.45-1.7-13.45-1.34-8.27-9.68-8-9.68-8-8.3-3.38-11.46,6.54-11.46,6.54-5.08,3.25-4.21,11.3-4.21,11.3C2.3,42.78,5.5,49.55,5.5,49.55c-.72,7,3.56,9.84,3.56,9.84,5.21,6,11.94,2.22,11.94,2.22Z"
                style="fill:#212222;stroke:#212222;stroke-miterlimit:10" />
            <path
                d="M20.14,23.36s-6.62-2.12-10.73-.15S3,27.28,1.58,36.3s-2,14.53,2.13,19.2,11.39,4,11.39,4C28.92,40.71,20.14,23.36,20.14,23.36Z"
                style="fill:#373838;stroke:#212222;stroke-miterlimit:10" />
            <path
                d="M27.17,26.87c-3-.37-6.39,2-6.25,4.65s1.31,22.17,1.31,22.17a5.14,5.14,0,0,0,4.87,4.86l21.06,1.34a6.8,6.8,0,0,0,6.39-4.68c.86-2.93,3.28-11.31,3.28-11.31,1.59-1.91,8.62-1.26,10.53,1.88,0,0,.85,8.82,1.76,11.47s1.89,4.18,4,4.3l20,1.25a4.26,4.26,0,0,0,4.18-3.54l4.36-17.84c.16-2.44-1.39-4.63-3.46-4.89L73.13,33.25a4.44,4.44,0,0,0-4.77,4.23l-.16,4.66c-1.46-1.23-6.8-2.32-9.5-1.65a25.11,25.11,0,0,0,1-4.28c.24-2-1.52-5.16-4.1-5.49L27.16,26.86Z"
                style="fill:#fff;stroke:#101111;stroke-linecap:round;stroke-linejoin:round;stroke-width:0.800000011920929px" />
            <path
                d="M75.18,42c-2.06-.21-3.21-.73-3.69-1.34a3.06,3.06,0,0,1,.18-3.15c.7-.84,1.73-.75,3.78-.5L95.91,39.5a4.65,4.65,0,0,1,3,1.22c.3.42.53,2.25-.15,2.79s-1.39.71-3.08.54L75.18,42Z"
                style="fill:#212222" />
            <path
                d="M74.64,47.66c-1.78-.17-2.79-.62-3.23-1.17a3,3,0,0,1,0-2.92c.56-.84,1.49-.78,3.34-.6l20.39,2c1.85.18,2.87.8,3.13,1.22A2.88,2.88,0,0,1,97.58,49c-.83.54-1.62.69-3.39.52L74.66,47.64Z"
                style="fill:#212222" />
            <path
                d="M75,53.14c-1.67-.15-2.63-.57-3.06-1.09a2.93,2.93,0,0,1-.16-2.78c.49-.81,1.38-.76,3.13-.59L94.13,50.5c1.73.16,2.69.74,2.92,1.14a2.83,2.83,0,0,1-.68,2.68,4.43,4.43,0,0,1-3.18.49L75,53.12Z"
                style="fill:#212222" />
            <path
                d="M75.59,58.57a3.91,3.91,0,0,1-2.78-1,3.12,3.12,0,0,1-.16-2.79c.45-.8,1-.76,1.79-.69L94.15,55.7c.5,0,1.35.41,1.43,1.14s0,2.15-.68,2.67a3.68,3.68,0,0,1-2.86.54L75.57,58.59Z"
                style="fill:#212222" />
            <path
                d="M29,36.24c-2.39-.27-3.71-.89-4.26-1.6A3.56,3.56,0,0,1,25.06,31c.86-1,2.07-.86,4.47-.53l23.47,3c1.89.26,2.79.34,3.36,1.26a3.42,3.42,0,0,1-.43,3.61c-.81.63-1.63.81-3.52.59L29,36.25Z"
                style="fill:#212222" />
            <path
                d="M24.41,41.39A3.43,3.43,0,0,1,24.48,38c.7-1,1.78-.89,3.95-.66l23.31,2.49c2.06.21,3.13.42,3.44,1.41a3,3,0,0,1-.94,3.2c-1,.61-1.87.78-3.85.58L28.13,42.76C26.06,42.55,24.9,42,24.41,41.39Z"
                style="fill:#212222" />
            <path
                d="M28.22,49c-1.92-.18-3-.67-3.5-1.25a3.19,3.19,0,0,1-.07-3.18c.62-.92,1.64-.84,3.66-.64l21.93,2.18c1.94.2,2.87.2,3.21,1.31a2.67,2.67,0,0,1-.94,3c-.9.57-1.76.73-3.59.56l-20.7-2Z"
                style="fill:#212222" />
            <path
                d="M28.71,55.3c-1.72-.14-2.7-.6-3.14-1.18A3.45,3.45,0,0,1,25.49,51c.55-.93,1.24-.86,2.1-.79S49.36,52,49.93,52.08s1.48.47,1.54,1.26-.1,2.4-.92,3a4.36,4.36,0,0,1-3.25.6l-18.59-1.6Z"
                style="fill:#212222" />
            <path d="M53.84,66.91s8.78-8.2,13.29-.31"
                style="fill:none;stroke:#111;stroke-linecap:round;stroke-miterlimit:10;stroke-width:1.5px" />
            <path
                d="M22.89,71.92a24.31,24.31,0,0,0,6.72,16.43C35,94.1,42.43,97.22,48.06,96.91c9.46-.53,15.57-3.52,19.07-7,5.72-5.62,5.26-10.66,5.26-10.66S68,77.82,67,75.83s4.74-.41,4.74-.41,1.85-9,4.13-9.52.86,7,.86,7,2.84.18,3.63,2.54c.71,2.1-2,3.89-3.82,4.36,0,0-.24,5.8-5.78,11.95-5.11,5.67-15.52,9.86-25.68,9A31,31,0,0,1,18,76.12"
                style="fill:#dd5837;stroke:#212222;stroke-miterlimit:10" />
            <rect x="14.92" y="71.79" width="11.62" height="6.84" transform="translate(-22.86 10.51) rotate(-18.56)"
                style="fill:#dd5837" />
        </g>
    </g>
</svg>