<svg xmlns="http://www.w3.org/2000/svg" viewBox="0 0 198.51 178.13"><g id="레이어_2" data-name="레이어 2"><g id="레이어_1-2" data-name="레이어 1"><polyline points="152.6 76.45 171.78 178.24 143.04 183.65 125.16 88.78" style="fill:#fff;stroke:#222;stroke-linecap:round;stroke-linejoin:round;stroke-width:3px"/><path d="M141.63,176.2c1.35,3.06,8.05,4.18,15.78,2.72s13.56-4.93,13-7.76l1.33,7.07c.54,2.84-5.3,6.31-13,7.77s-14.42.34-15.77-2.73Z" style="fill:#ccc;stroke:#222;stroke-linecap:round;stroke-linejoin:round;stroke-width:3px"/><path d="M141.69,6.94S107.14-11,60,18.17,2,88,2,88s-7.47,44.52,37.31,63.42c0,0,50.48-.77,93.57-28.1C162.74,104.35,176.46,92,177,62.61S151.56,11.09,141.69,6.94Z" style="fill:#fff;stroke:#222;stroke-linecap:round;stroke-linejoin:round;stroke-width:3px"/><path d="M33.48,111.13c8.84,13.66,14.32,29.25,9.18,31.86s-18.37-6.23-26.34-20.12C9,110.11,6.93,98.61,11.2,96.24S25.38,98.59,33.48,111.13Z" style="fill:#222;stroke:#222;stroke-linecap:round;stroke-linejoin:round;stroke-width:3px"/><rect x="71.3" y="44.28" width="65.79" height="15.31" rx="7.66" transform="translate(-11.28 66.72) rotate(-33.79)" style="fill:#222;stroke:#222;stroke-linecap:round;stroke-linejoin:round;stroke-width:3px"/><circle cx="104.04" cy="75.79" r="0.76" style="fill:#fff;stroke:#222;stroke-linecap:round;stroke-linejoin:round;stroke-width:3px"/><circle cx="123.25" cy="64.37" r="0.88" style="fill:#fff;stroke:#222;stroke-linecap:round;stroke-linejoin:round;stroke-width:3px"/><path d="M113.08,85.62s7.86-9.05,16.17-11c0,0,4.06,8.73-1.94,12.47S113.08,85.62,113.08,85.62Z" style="fill:#fff;stroke:#222;stroke-linecap:round;stroke-linejoin:round;stroke-width:3px"/></g></g></svg>