<svg xmlns="http://www.w3.org/2000/svg" viewBox="0 0 185.83 153.97"><g id="레이어_2" data-name="레이어 2"><g id="레이어_1-2" data-name="레이어 1"><path d="M162.83,194a111.44,111.44,0,0,0,2.06-50c-5.29-26.83-24.75-34.2-26.31-33.46L77.9,116.78s-4.74,24.8-6.72,42.31-1.54,24.34,0,34.88" style="fill:#393a3a"/><path d="M107.08,138.38c12.15-1.55,24-17.94,21.63-30.15s-41.11,5.49-41.11,5.49S91.56,140.38,107.08,138.38Z" style="fill:#fff"/><path d="M165.81,36.16S180.86,56.32,170,86.38s-17.59,43.22-4.14,71.14c0,0-20.45-26.07-11.79-57.25" style="fill:#c7a567;stroke:#222;stroke-linecap:round;stroke-miterlimit:10;stroke-width:1.5px"/><path d="M145.7,9.81S179,36.65,167.37,69s-1.92,56.44,18.3,60.94c0,0-28.88-.54-28.24-36.22s.64-59-24-73.3,11.92-9.32,11.92-9.32" style="fill:#c7a567;stroke:#222;stroke-linecap:round;stroke-miterlimit:10;stroke-width:1.5px"/><path d="M90.4,22.73c-7.87-2.25-20.05-7-20.33-10.66C70,10.75,71.69,9.68,73.16,9A51.31,51.31,0,0,1,94.33,4.56a43.28,43.28,0,0,1,5.75.35l4.77,6Z" style="fill:#c7a567"/><path d="M94.33,5.31a44.78,44.78,0,0,1,5.36.3l4.11,5.2L90.23,21.9C80.92,19.21,71,14.75,70.81,12c0-.67.94-1.54,2.66-2.33A50.61,50.61,0,0,1,94.33,5.31m0-1.5A52.16,52.16,0,0,0,72.84,8.32c-13.9,6.39,17.73,15.24,17.73,15.24L105.9,11l-5.41-6.83a41,41,0,0,0-6.16-.4Z" style="fill:#222"/><path d="M115.92,7.16S109.72.67,96.43,4.64C88.35,7.05,81.11,16.26,81.11,16.26" style="fill:#c7a567;stroke:#222;stroke-linecap:round;stroke-miterlimit:10;stroke-width:1.5px"/><path d="M63,13.05a20.51,20.51,0,0,1,12.8-4.46h.67a14.83,14.83,0,0,1,11.92,6.07Z" style="fill:#c7a567"/><path d="M75.76,9.34h.64a14.19,14.19,0,0,1,10.3,4.46L65.09,12.43A19.74,19.74,0,0,1,75.76,9.34m0-1.5a20.68,20.68,0,0,0-14.62,5.84l28.62,1.83S86.21,8.15,76.45,7.85Z" style="fill:#222"/><path d="M81.79,11.66S46.21,3.81,26.65,41c-17.72,33.73,2,56.13-2.66,74.51s-10.91,26.17-20.1,26.59c0,0,13.32,4.68,26.5-20.63S51.93,42.4,81.79,11.66" style="fill:#c7a567;stroke:#222;stroke-linecap:round;stroke-miterlimit:10;stroke-width:1.5px"/><path d="M85.14,120.75c-20,0-36.68-6.71-45.86-18.41-7.9-10.09-10.1-23.47-6.35-38.72,9.64-39.22,28.19-49,55-52.06a111.07,111.07,0,0,1,12.7-.82c29.15,0,49.13,15.93,59.39,47.35,5.34,16.35,4.82,29-1.58,38.67-11.16,16.86-39.18,21.41-65.12,23.63C90.57,120.63,87.82,120.75,85.14,120.75Z" style="fill:#fff"/><path d="M100.64,11.49c12.34,0,22.67,2.72,31.58,8.3,12.11,7.6,21.23,20.56,27.1,38.53,5.26,16.12,4.77,28.56-1.49,38-11,16.6-38.8,21.09-64.56,23.3-2.74.24-5.48.36-8.13.36-19.74,0-36.24-6.61-45.27-18.13C32.12,92,30,78.81,33.66,63.8,43.19,25,61.53,15.33,88,12.3a109.76,109.76,0,0,1,12.61-.81m0-1.5a111.73,111.73,0,0,0-12.78.82C60.57,13.93,41.9,24,32.2,63.44c-9,36.72,16.8,58.06,52.94,58.06q4,0,8.26-.36c40.34-3.46,84-12.12,67.34-63.28C147.33,16.78,120.25,10,100.64,10Z" style="fill:#222"/><path d="M49.7,35.41a9.38,9.38,0,0,1-6.82-2.95l0-.05-.05,0c-4-3.54-5.83-7-5.44-10.23.59-4.8,5.95-8.53,10.34-10.82a4.88,4.88,0,0,1,2.3-.58c4.15,0,8.19,5.3,9.69,10.43,1.56,5.3.55,9.71-2.7,11.8a13.53,13.53,0,0,1-7.27,2.44Z" style="fill:#222"/><path d="M50,11.49c3.41,0,7.35,4.34,9,9.89.54,1.86,2,8.15-2.39,11a12.87,12.87,0,0,1-6.88,2.32A8.43,8.43,0,0,1,43.46,32l-.08-.09-.09-.08c-3.81-3.36-5.56-6.59-5.19-9.57.55-4.48,5.71-8,9.94-10.26a4.3,4.3,0,0,1,2-.49M50,10a5.7,5.7,0,0,0-2.64.66C38.34,15.35,31,23,42.3,32.94a10,10,0,0,0,7.4,3.22,14.14,14.14,0,0,0,7.69-2.56C66,28.07,58.22,10,50,10Z" style="fill:#222"/><path d="M132.57,26.62a14,14,0,0,1-6.92-2.11c-4.08-2.36-4.22-8.06-3-12.6C124.1,6.5,128,.75,132.27.75a4.66,4.66,0,0,1,2,.45c6,2.79,9.88,6.75,10.57,10.86.61,3.6-1.08,7.36-5,11.19l-.05.05,0,0A9.23,9.23,0,0,1,132.57,26.62Z" style="fill:#222"/><path d="M132.27,0V1.5a4.06,4.06,0,0,1,1.68.38c5.79,2.69,9.49,6.44,10.14,10.31.57,3.33-1.05,6.88-4.82,10.53l-.08.08-.07.09a8.52,8.52,0,0,1-6.55,3,13.22,13.22,0,0,1-6.54-2c-3.71-2.15-3.81-7.48-2.66-11.75,1.6-5.95,5.51-10.61,8.9-10.61V0m0,0c-8.42,0-16,20-7,25.16a14.58,14.58,0,0,0,7.3,2.21,10.08,10.08,0,0,0,7.75-3.58c10.82-10.49,3.48-19-5.74-23.27A5.38,5.38,0,0,0,132.27,0Z" style="fill:#222"/><path d="M63.36,86.27a15.29,15.29,0,0,1-7.59-2.52c-4.59-2.72-6.1-6-4.64-10.16,1.37-3.85,3-6.11,5.65-9.85.91-1.28,1.93-2.71,3.09-4.42,4.56-6.72,8.66-8.13,11.29-8.13a8.37,8.37,0,0,1,3.41.75c2.38,1,3.74,2.19,4.25,3.59.9,2.42-.69,5.7-2.88,10.24l-.5,1a62.83,62.83,0,0,0-3.33,9.12c-1.07,3.53-2,6.58-3.63,8.23a6.7,6.7,0,0,1-5.12,2.13Z" style="fill:#222"/><path d="M71.16,51.94a7.76,7.76,0,0,1,3.11.68c2.15,1,3.41,2,3.85,3.17.78,2.12-.83,5.44-2.86,9.65l-.49,1a62,62,0,0,0-3.37,9.22c-1.05,3.44-2,6.4-3.48,8a6,6,0,0,1-4.56,1.87,14.6,14.6,0,0,1-7.21-2.41c-5.63-3.35-5.16-6.89-4.32-9.27,1.34-3.75,2.93-6,5.56-9.67.91-1.27,1.93-2.71,3.1-4.43,3.47-5.1,7.16-7.8,10.67-7.8m0-1.5c-5.83,0-10.22,6-11.91,8.46-4.52,6.65-6.94,9.14-8.83,14.44-1.33,3.76-.67,7.71,5,11.06a15.87,15.87,0,0,0,8,2.62A7.48,7.48,0,0,0,69,84.67c3.11-3.16,3.67-10.42,7.1-17.55,3.81-7.94,6.44-12.49-1.25-15.87a9.09,9.09,0,0,0-3.71-.81Z" style="fill:#222"/><path d="M127.85,81.18a9.74,9.74,0,0,1-5.68-1.8c-3.87-3.12-5.26-6.73-6.6-10.22A21.44,21.44,0,0,0,112.42,63c-3-3.57-6.51-10.8-1.17-15.28a9.29,9.29,0,0,1,6.11-2.44c2.78,0,5.38,1.37,7.35,2.55,3.58,2.17,9.78,8,14.21,14.54,2.71,4,3.77,9.9-1.37,14.51C134.39,79.69,131,81.18,127.85,81.18Z" style="fill:#222"/><path d="M117.37,46h0c2.58,0,5.07,1.31,6.95,2.44,3.51,2.13,9.61,7.87,14,14.32,2.53,3.73,3.53,9.24-1.25,13.53-3,2.71-6.2,4.13-9.2,4.13a9,9,0,0,1-5.21-1.64c-3.72-3-5.07-6.51-6.37-9.9A22.06,22.06,0,0,0,113,62.5c-2.77-3.35-6.15-10.12-1.27-14.22A8.57,8.57,0,0,1,117.37,46m0-1.5a10,10,0,0,0-6.59,2.62c-5.38,4.51-2.57,11.91,1.07,16.33s3.22,11.17,9.89,16.52a10.38,10.38,0,0,0,6.12,2c3,0,6.5-1.2,10.2-4.51,5-4.51,4.75-10.7,1.5-15.49-4.36-6.42-10.58-12.41-14.46-14.76-2.23-1.35-4.87-2.66-7.73-2.66Z" style="fill:#222"/><path d="M92.84,93c-5.59,0-10.3-5.28-10.3-8.6,0-2.27,2.15-2.74,4-2.74a14.9,14.9,0,0,1,2.52.24,12.16,12.16,0,0,0,2.13.2A13.83,13.83,0,0,0,97,80.55a10.12,10.12,0,0,1,4.1-1.15,7.63,7.63,0,0,1,3.2.79,3,3,0,0,1,1.82,3.64c-.81,4-6.65,8.9-13,9.12Z" style="fill:#222"/><path d="M101.09,80.15h0a7,7,0,0,1,2.89.72,2.26,2.26,0,0,1,1.4,2.81C104.71,87,99.61,92,93.13,92.2h-.29a10.21,10.21,0,0,1-6.75-2.85c-1.7-1.57-2.8-3.54-2.8-5,0-.49,0-2,3.21-2a14.42,14.42,0,0,1,2.39.23,12.68,12.68,0,0,0,2.26.21,14.44,14.44,0,0,0,6.14-1.56,9.58,9.58,0,0,1,3.8-1.09m0-1.5c-3.44,0-5.65,2.65-9.94,2.65a12.16,12.16,0,0,1-2-.18,15,15,0,0,0-2.65-.26c-9.74,0-2.76,12.84,6.34,12.84h.34c10-.35,17.89-11.21,11.43-14.19a8.34,8.34,0,0,0-3.52-.86Z" style="fill:#222"/><path d="M81.79,102.6s6.27,2.16,14.07-4.14c0,0,8.68,6.48,21.09-.89" style="fill:none;stroke:#222;stroke-linecap:round;stroke-miterlimit:10;stroke-width:1.5px"/><line x1="95.86" y1="98.46" x2="95.86" y2="91.8" style="fill:none;stroke:#222;stroke-linecap:round;stroke-miterlimit:10;stroke-width:1.5px"/><path d="M25.19,83.07c-1.57-8.58-3.54-30.41,11.93-48.75C53.46,15,78.77,12.14,87.82,11.76,57.15,29,41.64,48.14,34,61.33A75.78,75.78,0,0,0,25.19,83.07Z" style="fill:#c7a567"/><path d="M84.59,12.75C55.66,29.63,40.8,48.1,33.34,61a81.18,81.18,0,0,0-8,18.35c-1.23-10-1.11-28.57,12.33-44.49,14.38-17,36.4-21.1,46.89-22.06M90.22,11c-4.65,0-35.09.86-53.67,22.88C16.39,57.73,25.32,87,25.32,87s3-42.16,65.5-76Z" style="fill:#222"/><path d="M33.34,149.45c-4.53-11.64-14-42.18-1.67-70.37,20.87-47.9,32.44-56.85,56.7-66.21-3.7,8.61-21.58,49.27-37.19,68.94C36.4,100.44,30.54,122.61,33.34,149.45Z" style="fill:#c7a567"/><path d="M87,14.22C82.08,25.45,65.32,62.79,50.6,81.34c-13.88,17.49-20,38.05-18.47,62.61a117.44,117.44,0,0,1-3.74-14c-2.61-12.93-4-32.2,4-50.57C43,55,51.3,40.59,60.22,31.12,67.84,23,75.72,18.67,87,14.22m2.79-2.68C64.82,21,52.6,29.16,31,78.78c-15.81,36.31,3.76,75.87,3.76,75.87-3.56-24.89-.66-50.08,17-72.38s38-70.73,38-70.73Z" style="fill:#222"/><path d="M10.76,157c.2-.19.41-.39.61-.61,5.63-5.88,12-21.3,10.2-61.29-1.48-33.29,16-54.15,31-65.79A111.39,111.39,0,0,1,84,12.4c-2.37,3.69-9.16,13.32-23.39,27.29C41.7,58.25,26.37,96.94,23.92,121.42,22,140.81,17.39,153.1,10.76,157Z" style="fill:#c7a567"/><path d="M82.14,13.85c-3.12,4.53-9.82,13.3-22,25.3-19,18.68-34.45,57.58-36.91,82.2-.93,9.29-2.51,17-4.63,22.85,2.94-9.64,4.84-24.93,3.77-49.14C21.67,80.51,24.6,67.13,31,55.3A81.81,81.81,0,0,1,53,29.93,111.45,111.45,0,0,1,82.14,13.85m3.55-2.77S17.93,30,20.82,95.13C23.61,157.94,6.23,159,5,159H4.93c.34,0,.66.05,1,.05,10,0,16.42-14.28,18.75-37.59,2.41-24.07,17.74-62.9,36.47-81.28S85.69,11.08,85.69,11.08Z" style="fill:#222"/><path d="M164.25,63.93a22.93,22.93,0,0,0-1.08-8.22c-4.85-17.7-28.66-25.58-47.78-29.08-15.6-2.85-22.87-12.27-24.57-14.82,2.37-1.22,11.14-5.11,27-5.64l1.71,0C137.66,6.14,152,16,159.82,34,164.6,44.84,166.2,56.12,164.25,63.93Z" style="fill:#c7a567"/><path d="M119.56,5.39v1.5c17.78,0,31.84,9.72,39.58,27.36,3.47,7.92,5.25,16,5.18,22.81q-.18-.75-.42-1.53c-5-18.09-29-26.1-48.37-29.64C101.4,23.31,94.25,15.26,91.93,12.1c3.13-1.46,11.59-4.7,25.95-5.18l1.68,0V5.39m0,0c-.58,0-1.15,0-1.73,0-19.26.64-28.07,6.12-28.07,6.12S96.64,24,115.26,27.37s42.41,11.1,47.2,28.55c4.4,14.78-5.91,18.35-5.91,18.35,11.47-3.51,11.67-23,4-40.63-8-18.27-22.52-28.25-40.95-28.25Z" style="fill:#222"/><path d="M121.22,45.59a4.55,4.55,0,0,0,3.52-4.68" style="fill:none;stroke:#222;stroke-linecap:round;stroke-miterlimit:10;stroke-width:1.5px"/><path d="M123.7,46.2a4.54,4.54,0,0,0,4.46-3.8" style="fill:none;stroke:#222;stroke-linecap:round;stroke-miterlimit:10;stroke-width:1.5px"/><path d="M92.21,12.12s4.54,9.18,21,13.29c26.85,6.72,48.56,14.82,50.74,36.8,0,0,7.92-12.28-15.49-30.42S100.39,7.17,92.21,12.12Z" style="fill:#e61f6c"/><path d="M119.56,5.39v1.5c17.78,0,31.84,9.72,39.58,27.36,3.47,7.92,5.25,16,5.18,22.81q-.18-.75-.42-1.53c-5-18.09-29-26.1-48.37-29.64C101.4,23.31,94.25,15.26,91.93,12.1c3.13-1.46,11.59-4.7,25.95-5.18l1.68,0V5.39m0,0c-.58,0-1.15,0-1.73,0-19.26.64-28.07,6.12-28.07,6.12S96.64,24,115.26,27.37s42.41,11.1,47.2,28.55c4.4,14.78-5.91,18.35-5.91,18.35,11.47-3.51,11.67-23,4-40.63-8-18.27-22.52-28.25-40.95-28.25Z" style="fill:#222"/></g></g></svg>