<?xml version="1.0" encoding="UTF-8"?><svg xmlns="http://www.w3.org/2000/svg" viewBox="0 0 194.93 210.77"><g id="a"/><g id="b"><g id="c"><g><g><path d="M20.68,67.62c1.32,.7,2.7,1.18,4.09,1.45l13.06-24.51c-1-1.01-2.17-1.89-3.48-2.59-7.08-3.77-15.88-1.09-19.66,5.99s-1.09,15.88,5.99,19.66Z" style="fill:#c2c1c1; stroke:#212121; stroke-miterlimit:10;"/><path d="M22.79,63.66c1.36,.72,2.81,1.09,4.25,1.16l8.53-16.01c-.86-1.16-1.97-2.15-3.33-2.88-4.9-2.61-10.98-.75-13.58,4.14-2.61,4.89-.75,10.98,4.14,13.58Z" style="fill:#c2c1c1; stroke:#212121; stroke-miterlimit:10;"/></g><g><path d="M76.59,16.03c.1,1.49,.43,2.91,.94,4.24l27.71-1.92c.32-1.38,.45-2.84,.35-4.33C105.03,6.02,98.09-.02,90.08,.54c-8.01,.55-14.05,7.49-13.49,15.5Z" style="fill:#c2c1c1; stroke:#212121; stroke-miterlimit:10;"/><path d="M81.06,15.72c.11,1.53,.56,2.96,1.27,4.21l18.09-1.25c.53-1.34,.78-2.81,.68-4.35-.38-5.53-5.18-9.71-10.71-9.33s-9.71,5.18-9.33,10.71Z" style="fill:#c2c1c1; stroke:#212121; stroke-miterlimit:10;"/></g><g><path d="M20.12,155.66c1.4-.52,2.67-1.24,3.79-2.11l-9.71-26.02c-1.42,.08-2.85,.37-4.25,.9-7.52,2.81-11.34,11.18-8.53,18.7s11.18,11.34,18.7,8.53Z" style="fill:#c2c1c1; stroke:#212121; stroke-miterlimit:10;"/><path d="M18.55,151.45c1.44-.54,2.68-1.38,3.68-2.41l-6.34-16.99c-1.44-.12-2.92,.05-4.36,.59-5.2,1.94-7.84,7.72-5.9,12.92s7.72,7.84,12.92,5.9Z" style="fill:#c2c1c1; stroke:#212121; stroke-miterlimit:10;"/></g><g><path d="M63.48,204.26c.97-1.14,1.76-2.34,2.36-3.58l-18.35-13.68c-1.16,.83-2.24,1.81-3.21,2.95-5.21,6.11-5.13,14.26,.17,18.21,5.3,3.95,13.83,2.21,19.03-3.9Z" style="fill:#c2c1c1; stroke:#212121; stroke-miterlimit:10;"/><path d="M60.51,202.05c1-1.17,1.71-2.45,2.14-3.74l-11.98-8.94c-1.25,.69-2.43,1.62-3.43,2.79-3.6,4.22-3.55,9.85,.12,12.59s9.55,1.53,13.15-2.69Z" style="fill:#c2c1c1; stroke:#212121; stroke-miterlimit:10;"/></g><path d="M109.06,17.58h-23.63V208.65h23.63c43.85,0,79.4-42.77,79.4-95.54S152.91,17.58,109.06,17.58Z" style="fill:#e83633; stroke:#222; stroke-miterlimit:10; stroke-width:2px;"/><ellipse cx="88.49" cy="113.12" rx="79.4" ry="95.54" style="fill:#fbe8c2; stroke:#222; stroke-miterlimit:10; stroke-width:2px;"/><g><polygon points="76.33 77.6 70.21 78.02 2.94 82.69 3.36 88.8 9.48 88.38 9.9 94.5 16.02 94.07 16.44 100.19 22.56 99.76 22.98 105.88 29.09 105.45 29.52 111.58 53.98 109.88 53.55 103.75 59.67 103.33 59.24 97.22 65.37 96.79 64.52 84.56 70.64 84.14 76.75 83.71 77.18 89.83 83.29 89.4 83.71 95.52 89.83 95.09 90.25 101.21 96.37 100.78 96.79 106.91 121.25 105.21 120.83 99.09 126.94 98.66 126.52 92.55 132.64 92.12 131.8 79.89 144.03 79.04 143.6 72.93 76.33 77.6" style="fill:#333234;"/><g><rect x="15.8" y="87.74" width="6.13" height="6.13" transform="translate(-6.24 1.52) rotate(-3.97)" style="fill:#fff;"/><rect x="22.34" y="93.43" width="6.13" height="6.13" transform="translate(-6.62 1.99) rotate(-3.97)" style="fill:#fff;"/><rect x="28.88" y="99.12" width="6.13" height="6.13" transform="translate(-7 2.46) rotate(-3.97)" style="fill:#fff;"/><rect x="28.03" y="86.89" width="6.13" height="6.13" transform="translate(-6.15 2.37) rotate(-3.97)" style="fill:#fff;"/><rect x="34.57" y="92.58" width="6.13" height="6.13" transform="translate(-6.53 2.83) rotate(-3.97)" style="fill:#fff;"/><rect x="41.1" y="98.27" width="6.13" height="6.13" transform="translate(-6.91 3.3) rotate(-3.97)" style="fill:#fff;"/></g><g><rect x="83.07" y="83.08" width="6.13" height="6.13" transform="translate(-5.76 6.17) rotate(-3.97)" style="fill:#fff;"/><rect x="89.64" y="88.77" width="6.13" height="6.13" transform="translate(-6.13 6.64) rotate(-3.97)" style="fill:#fff;"/><rect x="96.18" y="94.46" width="6.13" height="6.13" transform="translate(-6.51 7.1) rotate(-3.97)" style="fill:#fff;"/><rect x="95.33" y="82.23" width="6.13" height="6.13" transform="translate(-5.67 7.02) rotate(-3.97)" style="fill:#fff;"/><rect x="101.87" y="87.92" width="6.13" height="6.13" transform="translate(-6.05 7.48) rotate(-3.97)" style="fill:#fff;"/><rect x="108.41" y="93.61" width="6.13" height="6.13" transform="translate(-6.42 7.95) rotate(-3.97)" style="fill:#fff;"/></g></g><path d="M80.95,118.05c-7.46,1.47-14.85,4.79-19.55,12.95-4.21,7.31-4.48,18.24,3.68,18.48s7.11-8.67,18.51-10.22,17.27,6.1,25.23,2.29c4.22-2.03,3.75-12.6-4.07-18.39-6.91-5.11-16.35-6.58-23.81-5.11Z" style="fill:#a02a28; stroke:#222; stroke-miterlimit:10;"/><path d="M103.99,66.32c-13.94,10.95-23.75,7.54-27.59,6.43-4.52-1.32-7.59-3.14-7.91-5.35s1.36-3.53,2.68-3.72,3.38,.58,3.58,3.22-3.18,5.86-8.25,7.55c-17.68,5.89-23.36-3.95-23.36-3.95" style="fill:none; stroke:#222; stroke-linecap:round; stroke-miterlimit:10; stroke-width:3px;"/><g><rect x="174.27" y="111.28" width="8.39" height="31.88" rx="4.19" ry="4.19" transform="translate(33.25 -36.94) rotate(13.02)" style="fill:#9c1f24; stroke:#222; stroke-miterlimit:10; stroke-width:2px;"/><g><path d="M183.17,113.39c-1.46-.34-2.91-.44-4.33-.34l-6.26,27.06c1.23,.71,2.58,1.26,4.04,1.6,7.82,1.81,15.62-3.06,17.43-10.88,1.81-7.82-3.06-15.62-10.88-17.43Z" style="fill:#c2c1c1; stroke:#212121; stroke-miterlimit:10;"/><path d="M182.16,117.76c-1.5-.35-2.99-.33-4.4-.02l-4.09,17.67c1.13,.9,2.46,1.57,3.96,1.92,5.4,1.25,10.8-2.12,12.05-7.52,1.25-5.4-2.12-10.8-7.52-12.05Z" style="fill:#c2c1c1; stroke:#212121; stroke-miterlimit:10;"/></g></g><g><path d="M135.97,198.21h0c-.94-1.56-.57-3.76,.82-4.93l14.13-11.85c1.39-1.17,3.28-.85,4.22,.7h0c.94,1.56,.57,3.76-.82,4.93l-14.13,11.85c-1.39,1.17-3.28,.85-4.22-.7Z" style="fill:#9c1f24; stroke:#222; stroke-miterlimit:10; stroke-width:2px;"/><g><path d="M154.9,183.83c-.61-1-1.33-1.86-2.13-2.56l-16.7,14c.3,1.12,.74,2.2,1.35,3.21,3.25,5.39,9.8,6.48,14.63,2.43,4.83-4.05,6.11-11.7,2.85-17.09Z" style="fill:#c2c1c1; stroke:#212121; stroke-miterlimit:10;"/><path d="M152.2,186.09c-.62-1.03-1.42-1.83-2.32-2.39l-10.91,9.14c.16,1.19,.53,2.34,1.15,3.37,2.25,3.72,6.77,4.48,10.11,1.68,3.34-2.8,4.22-8.08,1.97-11.81Z" style="fill:#c2c1c1; stroke:#212121; stroke-miterlimit:10;"/></g></g><g><rect x="151.76" y="29.9" width="8.39" height="31.88" rx="4.19" ry="4.19" transform="translate(5.99 108.56) rotate(-39.08)" style="fill:#9c1f24; stroke:#222; stroke-miterlimit:10; stroke-width:2px;"/><g><path d="M147.93,33.64c-1.16,.94-2.14,2.03-2.92,3.21l17.51,21.56c1.32-.53,2.58-1.26,3.74-2.2,6.23-5.06,7.18-14.21,2.12-20.44s-14.21-7.18-20.44-2.12Z" style="fill:#c2c1c1; stroke:#212121; stroke-miterlimit:10;"/><path d="M150.76,37.12c-1.19,.97-2.1,2.16-2.72,3.46l11.43,14.08c1.4-.34,2.75-.98,3.95-1.95,4.31-3.5,4.96-9.82,1.47-14.13s-9.82-4.96-14.13-1.47Z" style="fill:#c2c1c1; stroke:#212121; stroke-miterlimit:10;"/></g></g><path d="M157.98,101.33s-5.68,41.69-34.58,47.94" style="fill:none; stroke:#212121; stroke-linecap:square; stroke-miterlimit:10; stroke-width:3px;"/><polygon points="164.1 110.68 162.5 111.55 161.96 113.29 160.36 114.17 159.82 115.91 158.22 116.79 157.68 118.53 144.59 107.82 146.21 106.97 146.72 105.21 148.35 104.36 148.86 102.59 150.49 101.74 151 99.98 164.1 110.68" style="fill:#8ec7d4; opacity:.5;"/><rect x="106.83" y="146.52" width="20.96" height="8.77" rx="4.39" ry="4.39" transform="translate(-24.39 22.63) rotate(-9.99)" style="fill:#444; stroke:#212121; stroke-miterlimit:10;"/><path d="M68.67,122.98s16.43,2.33,28.75-3.66c0,0-8.51-2.52-14.37-1.82s-14.37,5.47-14.37,5.47Z" style="fill:#fff; stroke:#222; stroke-miterlimit:10;"/></g></g></g></svg>