<svg xmlns="http://www.w3.org/2000/svg" viewBox="0 0 117.18 167.16"><g id="레이어_2" data-name="레이어 2"><g id="레이어_1-2" data-name="레이어 1"><path d="M30.52,275.66a13,13,0,0,1-1.88-.14,14.28,14.28,0,0,1-9.82-6.9c-1.8-2.92-3.69-8-2.54-15.46.66-4.35,2.27-9.42,4.13-15.29,2.34-7.39,5-15.77,6.38-24.75l8.53-55.53c2-13.24-5.41-25.47-14-39.62C10.19,99.72-2.4,79,2.66,50.58,7.79,21.68,30.88,1.5,58.8,1.5A57.7,57.7,0,0,1,69,2.41C100.4,8,120.47,37.89,114.68,70.48c-5,28-20.64,43.38-34.46,56.93-11,10.78-20.48,20.09-22.56,33.61l-8.53,55.53c-1.38,9-1.36,17.77-1.34,25.52,0,6.16,0,11.48-.64,15.83-1.88,12.2-9.94,17.76-16.63,17.76Z" style="fill:#eabb67"/><path d="M58.8,3a57.41,57.41,0,0,1,9.93.88c31.28,5.56,50,35.05,44.47,66.33-8.83,49.74-52.2,59.18-57,90.59l-8.53,55.53c-2.48,16.14-.5,31.64-2,41.34-1.7,11.06-8.78,16.49-15.14,16.49a11.24,11.24,0,0,1-1.65-.12c-6.73-1-13-8.63-11.11-20.65,1.49-9.7,8-23.89,10.51-40l8.53-55.53c4.83-31.4-41.5-57.24-32.67-107C9.09,22.91,31.74,3,58.8,3m0-3A57.08,57.08,0,0,0,21.2,14.19a62.6,62.6,0,0,0-20,36.12c-5.16,29,7.59,50,18.84,68.44,8.46,13.9,15.77,25.91,13.82,38.61L25.31,212.9c-1.37,8.86-4,17.18-6.33,24.52-1.88,5.92-3.5,11-4.19,15.51-1.22,7.93.82,13.34,2.75,16.47A15.79,15.79,0,0,0,28.41,277a13.44,13.44,0,0,0,2.11.16c7.31,0,16.1-6,18.11-19,.68-4.47.67-9.84.66-16.06,0-7.7,0-16.42,1.32-25.29l8.53-55.53c2-13,11.33-22.17,22.13-32.77,14-13.71,29.82-29.25,34.89-57.74a61.69,61.69,0,0,0-8.88-45A57,57,0,0,0,69.25.93,59.61,59.61,0,0,0,58.8,0Z" style="fill:#222"/><path d="M98.69,93.73,92.62,68.07,78,90.32,64.15,67.6,53.79,88.81l-15-19.32L29.19,89.74,16.54,73A152.61,152.61,0,0,0,7.29,87.46a120.16,120.16,0,0,0,9,19.19c33.73-12.46,54-10.86,81.29-.47A82.63,82.63,0,0,0,112.21,75Z" style="fill:#a22934"/><path d="M3.38,70.44C47.12,49.8,90.81,57.78,113.91,64.82c0-.47.08-.93.11-1.39l.06-1c0-.47,0-.93.06-1.39,0-.64,0-1.28,0-1.91s0-1,0-1.45l0-.89c-.07-1.62-.2-3.23-.4-4.82,0-.22,0-.43-.08-.65-.23-1.66-.52-3.31-.88-4.93,0-.12,0-.24-.08-.36q-.58-2.53-1.38-5l0-.13q-.82-2.53-1.89-5C63,23.33,10.94,40.7,10.94,40.7l-4.79,2h0c-.22.67-.42,1.35-.61,2-.11.37-.2.75-.3,1.13s-.26,1-.38,1.51c-.07.31-.15.62-.22.93-.18.84-.36,1.68-.51,2.53s-.26,1.56-.37,2.33A69,69,0,0,0,3.38,70.44Z" style="fill:#98c72c"/><path d="M70.2,53.8l-.47,0c-4.17-.44-6.85-6.55-6.09-13.92.73-7.07,4.32-12.4,8.35-12.4l.46,0c4.17.43,6.85,6.54,6.09,13.91C77.81,48.47,74.22,53.8,70.2,53.8Z" style="fill:#fff"/><path d="M72,28.46l.36,0c3.56.37,5.89,6.11,5.19,12.82-.67,6.48-3.91,11.5-7.34,11.5l-.37,0C66.27,52.41,64,46.67,64.64,40c.67-6.48,3.91-11.5,7.35-11.5m0-2h0c-4.54,0-8.56,5.72-9.34,13.3a20.82,20.82,0,0,0,1.14,9.74c1.27,3.14,3.34,5,5.84,5.27l.57,0c4.53,0,8.55-5.72,9.33-13.3a20.69,20.69,0,0,0-1.14-9.74c-1.27-3.14-3.34-5-5.84-5.27l-.56,0Z" style="fill:#222"/><path d="M37.2,55.14c-4.12,0-7.56-5.47-8-12.74S31.67,29,35.86,28.76h.27c4.12,0,7.56,5.47,8,12.74a19.77,19.77,0,0,1-1.46,9.21c-1.24,2.73-3.09,4.31-5.2,4.44Z" style="fill:#fff"/><path d="M36.13,29.75c3.49,0,6.6,5.2,7,11.8S41,53.92,37.41,54.14H37.2c-3.49,0-6.6-5.2-7-11.8S32.34,30,35.92,29.75h.21m0-2H35.8c-2.51.15-4.66,1.93-6.06,5a20.75,20.75,0,0,0-1.54,9.69c.47,7.79,4.34,13.67,9,13.67h.34c2.5-.15,4.65-1.93,6.05-5a20.72,20.72,0,0,0,1.55-9.68c-.48-7.8-4.35-13.68-9-13.68Z" style="fill:#222"/><ellipse cx="71.09" cy="40.63" rx="5.4" ry="2.87" transform="translate(23.37 107.17) rotate(-84.1)" style="fill:#fff;stroke:#222;stroke-miterlimit:10;stroke-width:3px"/><ellipse cx="36.67" cy="41.95" rx="3.43" ry="6.45" transform="translate(-2.5 2.32) rotate(-3.51)" style="fill:#fff;stroke:#222;stroke-miterlimit:10;stroke-width:3px"/><path d="M63.41,82.62C59,82.62,55,72.31,54.23,70.24l-.37-1L70,64.33l-.14,1.48c-1.06,11.47-3.12,16.81-6.47,16.81Z" style="fill:#fff"/><path d="M68.88,65.72h0m0,0c-1.11,12.06-3.23,15.9-5.47,15.9-3.93,0-8.25-11.72-8.25-11.72l13.72-4.18m2.27-2.78-2.85.87L54.58,68l-2,.62.73,2c1.44,3.92,5.31,13,10.12,13,4.09,0,6.32-5.3,7.46-17.71l.28-3Zm-2.26.78Zm0,4h0Z" style="fill:#222"/><path d="M78,16.59S74.58,10.25,68.78,15" style="fill:none;stroke:#222;stroke-miterlimit:10;stroke-width:2px"/><path d="M42.41,15.15s-6.15-6.57-10.36,3.91" style="fill:none;stroke:#222;stroke-miterlimit:10;stroke-width:2px"/></g></g></svg>