<svg xmlns="http://www.w3.org/2000/svg" viewBox="0 0 82.2 113.92"><g id="레이어_2" data-name="레이어 2"><g id="레이어_1-2" data-name="레이어 1"><path d="M31.59,80S4.42,105,1,96.93,13.63,74.29,13.63,74.29s-2.92-2.38-.11-7.34" style="fill:none;stroke:#fff;stroke-linecap:round;stroke-miterlimit:10"/><path d="M49.39,75.74s29.35,22.48,32,14.1S66.75,68.45,66.75,68.45s2.69-2.64-.57-7.32" style="fill:none;stroke:#fff;stroke-linecap:round;stroke-miterlimit:10"/><path d="M56.9,111.12,51.07,58.57a4.58,4.58,0,0,0-5.07-4L31.8,56.3a4.57,4.57,0,0,0-4,5.08l5.83,52.54Z" style="fill:#454545"/><path d="M62.3,34.76l-9-24.37a6.1,6.1,0,0,0-6.43-3.95L19.1,9.67A6.09,6.09,0,0,0,13.75,15l-3.18,25.8a6,6,0,0,0,.16,2.29,6.09,6.09,0,0,0,.37,2.28l9,24.37a6.09,6.09,0,0,0,6.43,4L54.3,70.45a6.1,6.1,0,0,0,5.35-5.32l3.18-25.79a6.06,6.06,0,0,0-.16-2.3A6.09,6.09,0,0,0,62.3,34.76Z" style="fill:#454545;stroke:#222;stroke-linecap:round;stroke-linejoin:round;stroke-width:1.5px"/><rect x="7.79" y="36.94" width="57.82" height="6.24" transform="translate(-4.39 4.51) rotate(-6.64)" style="fill:#222;stroke:#222;stroke-linecap:round;stroke-linejoin:round;stroke-width:1.5px"/><path d="M38.52,1c7,0,12.6,1.92,15.79,5.08C58,9.76,66,27.79,67.24,32.54s.54,20.88-2.37,25.83c0,0-.48,13.07-13.14,15.57L30.27,75.85a17.67,17.67,0,0,1-2.21.12c-4.31,0-13.6-1.31-15.42-12.36A39.34,39.34,0,0,1,4.31,41.17S6.88,15.67,15.13,8.6,26.22,1.93,34.91,1.16C36.15,1.05,37.36,1,38.52,1m0-1h0c-1.2,0-2.45.06-3.7.17L32.63.35c-7.14.58-10.4.85-18.15,7.49C6,15.09,3.42,40,3.31,41.06v.14A40.21,40.21,0,0,0,11.7,64C13.77,75.71,23.82,77,28.06,77a17.38,17.38,0,0,0,2.32-.13l21.43-1.91h.11C64.19,72.5,65.69,60.58,65.85,58.66,69,53,69.44,37,68.2,32.29S58.94,9.25,55,5.37C51.52,1.91,45.66,0,38.52,0Z" style="fill:#222"/><g style="opacity:0.5"><path d="M30.27,75.85S15,78.11,12.64,63.61A39.34,39.34,0,0,1,4.31,41.17S6.88,15.67,15.13,8.6,26.22,1.93,34.91,1.16s15.68,1.23,19.4,4.92S66,27.79,67.24,32.54s.54,20.88-2.37,25.83c0,0-.48,13.07-13.14,15.57Z" style="fill:#fff"/><path d="M25,13.56a9.92,9.92,0,0,1-5.95,6c-2.61.74-5-.66-5.16-3.86-.2-4.29,3.48-9.19,7.65-9.38C25.11,6.17,26.3,9.87,25,13.56Z" style="fill:#e8426c"/><path d="M17.55,39.49a9.94,9.94,0,0,1,.51,8.45c-1.2,2.43-3.85,3.28-6.33,1.25-3.32-2.72-4.51-8.73-1.86-12C12.16,34.43,15.71,36,17.55,39.49Z" style="fill:#e8426c"/><path d="M66.63,32.25a10,10,0,0,1-.75,8.43c-1.55,2.24-4.29,2.69-6.44.31-2.89-3.18-3.17-9.3-.08-12.11C62,26.46,65.31,28.55,66.63,32.25Z" style="fill:#e8426c"/><path d="M52.57,6.05a9.91,9.91,0,0,1,3.62,7.65c-.2,2.71-2.34,4.48-5.4,3.53-4.09-1.29-7.44-6.42-6.19-10.41C45.68,3.37,49.56,3.52,52.57,6.05Z" style="fill:#e8426c"/><path d="M40.64,22.89a6.5,6.5,0,0,1-2,8,7.1,7.1,0,0,1-8.8-.38,6.38,6.38,0,0,1,.72-10.34A7,7,0,0,1,40.64,22.89Z" style="fill:#e8426c"/><path d="M25.06,63.16a10,10,0,0,1,2.67,8c-.53,2.66-2.86,4.17-5.78,2.85C18,72.28,15.33,66.78,17.05,63,18.54,59.68,22.38,60.29,25.06,63.16Z" style="fill:#e8426c"/><path d="M60.71,62.79A9.91,9.91,0,0,1,57,70.37c-2.25,1.52-5,.95-6.12-2-1.53-4,.42-9.82,4.33-11.32C58.54,55.72,60.83,58.86,60.71,62.79Z" style="fill:#e8426c"/><path d="M48.74,49.86a6.47,6.47,0,0,1-2,8A7.11,7.11,0,0,1,38,57.48a6.38,6.38,0,0,1,.73-10.34A6.94,6.94,0,0,1,48.74,49.86Z" style="fill:#e8426c"/></g><path d="M39,35h0m-.36-1.35h0a1.43,1.43,0,0,0-1.14,1.64,1.46,1.46,0,0,0,1.24,1.54h0a1.66,1.66,0,0,0-.1-3.18Z" style="fill:#222"/><path d="M33.26,36.38h0M32.9,35h0a1.44,1.44,0,0,0-1.13,1.64A1.46,1.46,0,0,0,33,38.21h0A1.66,1.66,0,0,0,32.9,35Z" style="fill:#222"/><path d="M33.86,43a8.93,8.93,0,0,0,8-5.21" style="fill:none;stroke:#222;stroke-linecap:round;stroke-linejoin:round;stroke-width:1.5px"/></g></g></svg>