<?xml version="1.0" encoding="UTF-8"?><svg id="uuid-cdd6f612-25b2-4e83-a9af-8f9b60eab144" xmlns="http://www.w3.org/2000/svg" viewBox="0 0 77.98 58.16"><g id="uuid-bbd8c40f-e6b7-4259-9e55-f6a9d8e8a3c4"><g><g><path d="M17.78,56.16c-1.75,0-3.3-1.11-3.88-2.76l-.04-.14L7.86,30.98c-.41-1.25-.21-2.57,.54-3.63,.78-1.1,2.04-1.75,3.38-1.75,.87,0,1.7,.28,2.42,.81l12.47,6.9,9.4-18.96,.34-.27c.73-.59,1.65-.92,2.59-.92s1.86,.33,2.59,.92l.34,.27,9.4,18.96,12.47-6.9c.71-.53,1.55-.81,2.42-.81,1.33,0,2.6,.66,3.38,1.75,.77,1.08,.96,2.43,.51,3.71l-6.51,22.25c-.6,1.74-2.16,2.85-3.91,2.85H17.78Z" style="fill:#f5ab16;"/><path d="M38.99,15.14c.47,0,.94,.16,1.33,.47l9.7,19.57c.29,.31,.65,.47,1.01,.47s.72-.16,1.01-.47l12.85-7.1c.41-.34,.87-.48,1.32-.48,1.33,0,2.52,1.31,2,2.81l-6.54,22.35c-.29,.85-1.09,1.41-1.99,1.41H17.78c-.9,0-1.69-.57-1.99-1.41l-6.01-22.35c-.52-1.5,.68-2.81,2-2.81,.44,0,.9,.15,1.32,.48l12.85,7.1c.29,.31,.65,.47,1.01,.47s.72-.16,1.01-.47l9.7-19.57c.39-.31,.86-.47,1.33-.47m0-4c-1.4,0-2.77,.49-3.85,1.37l-.67,.55-.39,.78-8.27,16.69-10.53-5.83c-1.03-.73-2.23-1.11-3.49-1.11-1.98,0-3.85,.97-5.01,2.6-1.12,1.57-1.41,3.51-.83,5.36l5.98,22.24,.04,.14,.05,.14c.85,2.45,3.17,4.1,5.77,4.1H59.67c2.6,0,4.91-1.65,5.77-4.1l.03-.09,.03-.1,6.52-22.27c.61-1.86,.31-3.83-.81-5.41-1.16-1.63-3.03-2.6-5.01-2.6-1.26,0-2.46,.38-3.49,1.11l-10.53,5.83-8.27-16.69-.39-.78-.67-.55c-1.09-.88-2.45-1.37-3.85-1.37h0Z" style="fill:#231815;"/></g><g><circle cx="38.99" cy="7.01" r="5.01" style="fill:#f5ab16;"/><path d="M38.99,4c1.66,0,3.01,1.35,3.01,3.01s-1.35,3.01-3.01,3.01-3.01-1.35-3.01-3.01,1.35-3.01,3.01-3.01m0-4c-3.87,0-7.01,3.15-7.01,7.01s3.15,7.01,7.01,7.01,7.01-3.15,7.01-7.01-3.15-7.01-7.01-7.01h0Z" style="fill:#231815;"/></g><g><circle cx="7.01" cy="21.04" r="5.01" style="fill:#f5ab16;"/><path d="M7.01,18.03c1.66,0,3.01,1.35,3.01,3.01s-1.35,3.01-3.01,3.01-3.01-1.35-3.01-3.01,1.35-3.01,3.01-3.01m0-4c-3.87,0-7.01,3.15-7.01,7.01s3.15,7.01,7.01,7.01,7.01-3.15,7.01-7.01-3.15-7.01-7.01-7.01h0Z" style="fill:#231815;"/></g><g><circle cx="70.97" cy="21.04" r="5.01" style="fill:#f5ab16;"/><path d="M70.97,18.03c1.66,0,3.01,1.35,3.01,3.01s-1.35,3.01-3.01,3.01-3.01-1.35-3.01-3.01,1.35-3.01,3.01-3.01m0-4c-3.87,0-7.01,3.15-7.01,7.01s3.15,7.01,7.01,7.01,7.01-3.15,7.01-7.01-3.15-7.01-7.01-7.01h0Z" style="fill:#231815;"/></g></g></g></svg>