<?xml version="1.0" encoding="UTF-8"?><svg xmlns="http://www.w3.org/2000/svg" xmlns:xlink="http://www.w3.org/1999/xlink" viewBox="0 0 180 180"><defs><style>.e,.f,.g,.h,.i,.j,.k{fill:#fff;}.f{opacity:.9;}.g{opacity:0;}.h{opacity:.3;}.i{opacity:.1;}.l{fill:#48464d;}.j{opacity:.5;}.m{fill:#111;}.k{opacity:.7;}.n{fill:url(#d);}.o{fill:#161616;}.p{fill:#313234;}</style><linearGradient id="d" x1="72.53" y1="72.08" x2="107.73" y2="107.28" gradientTransform="matrix(1, 0, 0, 1, 0, 0)" gradientUnits="userSpaceOnUse"><stop offset="0" stop-color="#e61673"/><stop offset="1" stop-color="#172a88"/></linearGradient></defs><g id="a"/><g id="b"><g id="c"><g><g><g><path d="M90,179.5C40.65,179.5,.5,139.35,.5,90c0-14.49,3.54-28.87,10.24-41.61C26.28,18.85,56.65,.5,90,.5c49.35,0,89.5,40.15,89.5,89.5s-40.15,89.5-89.5,89.5Z" style="fill:#313234;"/><path d="M90,1c49.15,0,89,39.85,89,89s-39.85,89-89,89S1,139.15,1,90c0-14.94,3.68-29.01,10.18-41.38C26.08,20.31,55.78,1,90,1m0-1C56.46,0,25.92,18.45,10.3,48.16,3.56,60.96,0,75.43,0,90c0,49.63,40.37,90,90,90s90-40.37,90-90S139.63,0,90,0h0Z" style="fill:#111;"/></g><path d="M90.13,90.03L20.76,33.72C6.37,51.49-.54,74.11,1.19,96.61c.31,4.03,.9,8.05,1.77,12.05l87.17-18.63Z" style="fill:#48464d;"/><path d="M6.72,121.3c2.06,5.4,4.66,10.68,7.85,15.76s7.1,10.1,11.26,14.42l64.29-61.46L6.72,121.3Z" style="fill:#48464d;"/><path d="M124.62,89.68c0,19.05-15.44,34.49-34.49,34.49s-34.49-15.44-34.49-34.49c0-5.79,1.43-11.24,3.95-16.03,5.77-10.97,17.28-18.45,30.54-18.45,19.05,0,34.49,15.44,34.49,34.49Z" style="fill:#161616;"/><path d="M115.02,89.68c0,13.75-11.14,24.89-24.89,24.89s-24.89-11.14-24.89-24.89c0-4.18,1.03-8.11,2.85-11.57,4.17-7.92,12.47-13.32,22.04-13.32,13.75,0,24.89,11.14,24.89,24.89Z" style="fill:url(#d);"/><g><path d="M87.05,28.83c-.83,0-1.5-.67-1.5-1.5v-6.73c0-.83,.67-1.5,1.5-1.5s1.5,.67,1.5,1.5v6.73c0,.83-.67,1.5-1.5,1.5Z" style="fill:#fff;"/><path d="M87.05,19.35c.69,0,1.25,.56,1.25,1.25v6.73c0,.69-.56,1.25-1.25,1.25s-1.25-.56-1.25-1.25v-6.73c0-.69,.56-1.25,1.25-1.25m0-.5c-.96,0-1.75,.79-1.75,1.75v6.73c0,.96,.79,1.75,1.75,1.75s1.75-.79,1.75-1.75v-6.73c0-.96-.79-1.75-1.75-1.75h0Z" style="fill:#111;"/></g><g><path d="M92.78,28.83c-.83,0-1.5-.67-1.5-1.5v-6.73c0-.83,.67-1.5,1.5-1.5s1.5,.67,1.5,1.5v6.73c0,.83-.67,1.5-1.5,1.5Z" style="fill:#fff;"/><path d="M92.78,19.35c.69,0,1.25,.56,1.25,1.25v6.73c0,.69-.56,1.25-1.25,1.25s-1.25-.56-1.25-1.25v-6.73c0-.69,.56-1.25,1.25-1.25m0-.5c-.96,0-1.75,.79-1.75,1.75v6.73c0,.96,.79,1.75,1.75,1.75s1.75-.79,1.75-1.75v-6.73c0-.96-.79-1.75-1.75-1.75h0Z" style="fill:#111;"/></g><g><path d="M91.46,41.38c-1.65,0-4.77-.3-7.1-2.32-.3-.26-.48-.63-.51-1.03s.1-.79,.36-1.09c.28-.33,.7-.52,1.13-.52,.36,0,.71,.13,.98,.37,1.65,1.43,4.12,1.59,5.1,1.59,.31,0,.62-.01,.91-.04,4.64-.42,7.34-2.34,8.73-6.24-1.06-.67-1.55-1.43-1.56-1.44-.45-.7-.24-1.63,.45-2.07,.24-.16,.52-.24,.81-.24,.5,0,.97,.25,1.25,.67,.03,.04,.77,1.06,2.58,1.06,.32,0,.65-.03,.99-.09,.09-.02,.18-.02,.27-.02,.72,0,1.34,.52,1.47,1.23,.07,.39-.01,.79-.24,1.12-.23,.33-.57,.55-.96,.62-.54,.1-1.06,.15-1.56,.15-.22,0-.43-.02-.63-.04-1.77,5.06-5.48,7.77-11.33,8.29-.26,.02-.65,.05-1.14,.05Z" style="fill:#fff;"/><path d="M100.77,28.6c.41,0,.8,.2,1.04,.56,.06,.08,.86,1.17,2.79,1.17,.32,0,.66-.03,1.04-.1,.08-.01,.15-.02,.23-.02,.59,0,1.12,.42,1.23,1.03,.12,.68-.33,1.33-1.01,1.45-.54,.1-1.05,.14-1.51,.14-.29,0-.54-.04-.81-.07-1.7,5.07-5.37,7.8-11.18,8.32-.25,.02-.64,.05-1.12,.05-1.74,0-4.71-.33-6.94-2.26-.52-.45-.58-1.24-.12-1.76,.25-.28,.59-.43,.94-.43,.29,0,.58,.1,.82,.31,1.41,1.22,3.5,1.65,5.27,1.65,.32,0,.63-.01,.93-.04,4.82-.43,7.61-2.5,9-6.6-1.08-.63-1.61-1.4-1.65-1.47-.37-.58-.21-1.35,.38-1.73,.21-.13,.44-.2,.67-.2m0-.5v0c-.33,0-.66,.1-.94,.28-.81,.52-1.05,1.61-.53,2.42,.02,.03,.49,.74,1.46,1.41-1.37,3.67-3.99,5.5-8.44,5.9-.29,.03-.58,.04-.88,.04-.96,0-3.35-.15-4.94-1.53-.32-.28-.73-.43-1.15-.43-.51,0-.99,.22-1.32,.6-.63,.73-.55,1.84,.17,2.47,2.39,2.07,5.57,2.38,7.26,2.38,.51,0,.91-.03,1.16-.05,5.89-.53,9.65-3.24,11.48-8.27,.15,.01,.3,.02,.46,.02,.51,0,1.05-.05,1.6-.15,.46-.08,.86-.34,1.13-.73,.27-.38,.37-.85,.28-1.31-.15-.83-.87-1.44-1.72-1.44-.1,0-.21,0-.32,.03-.33,.06-.65,.09-.95,.09-1.68,0-2.35-.92-2.38-.96-.32-.48-.86-.77-1.45-.77h0Z" style="fill:#111;"/></g></g><g><circle cx="99.02" cy="80.79" r="3.54" style="fill:#fff; opacity:.7;"/><circle cx="81.24" cy="98.57" r="3.54" style="fill:#fff; opacity:0;"/><circle cx="90.13" cy="77.11" r="3.54" style="fill:#fff; opacity:.5;"/><circle cx="81.24" cy="80.79" r="3.54" style="fill:#fff; opacity:.3;"/><circle cx="77.56" cy="89.68" r="3.54" style="fill:#fff; opacity:.1;"/><circle cx="90.13" cy="102.25" r="3.54" style="fill:#fff;"/><circle cx="99.02" cy="98.57" r="3.54" style="fill:#fff;"/><circle cx="102.7" cy="89.68" r="3.54" style="fill:#fff; opacity:.9;"/></g></g></g></g></svg>