<?xml version="1.0" encoding="UTF-8"?><svg xmlns="http://www.w3.org/2000/svg" viewBox="0 0 393.85 230.89"><g id="a"/><g id="b"><g id="c"><g><g><g><path d="M31.07,94.42c5.22-3.6,10.36-6.38,15.39-8.33,5.04-1.95,9.39-2.92,13.08-2.92s6.04,1.06,7.07,3.17c2.11-2.44,4.74-3.74,7.88-3.9,.92-.05,2.06-.08,3.41-.08s2.19,.18,2.52,.53c.33,.35,.62,1.02,.89,1.99,.27,.97,.43,1.52,.49,1.62,.05,.11,.08,.28,.08,.53s-.14,.54-.41,.89c-.27,.35-.58,.69-.93,1.01-.35,.33-.56,.52-.61,.57-11.97,17.17-24.2,36.74-36.71,58.72,12.89-11.42,24.42-19.63,34.6-24.61,.65-.32,1.27-.49,1.87-.49,.87,0,1.43,.56,1.71,1.67,.27,1.11,.41,2.69,.41,4.75s-.12,3.33-.37,3.82c-.24,.49-1.5,1.46-3.78,2.92-2.27,1.46-5.23,3.36-8.85,5.69-3.63,2.33-7.47,4.9-11.53,7.72-9.75,6.77-17.76,13.89-24.04,21.36-8.12,9.8-13.94,17.71-17.46,23.72-1.3,2.33-3.49,3.49-6.58,3.49-6.12,0-9.18-2.9-9.18-8.69s2.9-11.94,8.69-18.11c4.33-4.6,8.31-8.37,11.94-11.29,3.63-2.92,5.6-4.58,5.93-4.96,4.01-6.01,9.45-14.54,16.33-25.58-5.85,6.12-11.52,10.99-17.01,14.62-5.5,3.63-9.6,5.44-12.31,5.44-8.28,0-12.43-3.55-12.43-10.64,0-5.63,1.43-11.32,4.3-17.06,2.87-5.74,6.55-10.87,11.05-15.39,4.49-4.52,9.35-8.58,14.58-12.18Zm30.9-2.07c-6.28,1.35-12.18,3.59-17.71,6.7-5.52,3.11-10.07,6.44-13.64,9.99-3.57,3.55-6.66,7.19-9.26,10.92-4.87,6.98-7.31,12.4-7.31,16.24,0,.92,.23,1.38,.69,1.38s1.49-.49,3.09-1.46c1.6-.97,3.86-2.64,6.78-4.99,2.92-2.36,6.17-5.16,9.75-8.41,8.28-7.63,17.49-17.76,27.61-30.38Z" style="fill:#fff;"/><path d="M137.34,86.67c4.11,0,6.17,1.41,6.17,4.22,0,1.52-.35,2.63-1.06,3.33s-2.21,3.05-4.51,7.03c-2.3,3.98-4.85,9.07-7.63,15.27-2.79,6.2-4.59,11.49-5.4,15.88-.16,.54-.24,1.3-.24,2.27,0,2.98,.81,4.47,2.44,4.47s3.55-.77,5.77-2.32c2.22-1.54,4.2-3.19,5.93-4.95,1.73-1.76,3.42-3.56,5.08-5.4,1.65-1.84,2.64-2.9,2.96-3.17,.33-.27,.81-.41,1.46-.41,1.03,0,1.65,.79,1.87,2.36,.22,1.57,.33,3.2,.33,4.87s-.16,2.84-.49,3.49c-1.57,3.09-5.02,6.8-10.36,11.13-5.33,4.33-10.18,6.5-14.54,6.5s-7.57-1.33-9.62-3.98c-2.06-2.65-3.09-5.59-3.09-8.81s.54-6.05,1.62-8.49c-4.5,5.85-9.65,10.8-15.47,14.86-5.82,4.06-10.57,6.09-14.25,6.09s-6.69-1.11-9.02-3.33c-2.98-2.76-4.47-6.59-4.47-11.49s1.1-9.83,3.29-14.78c2.19-4.95,5.08-9.47,8.65-13.56,3.57-4.09,7.5-7.81,11.78-11.17,8.99-7.04,17.27-10.56,24.85-10.56,2.92,0,5.31,.49,7.15,1.46,1.84,.97,3,2.19,3.49,3.66,1.3-1.95,2.4-3.18,3.29-3.7s2.23-.77,4.02-.77Zm-10.8,9.01c-9.26,0-18.84,5.15-28.75,15.43-3.52,3.68-6.75,8.1-9.71,13.24-2.95,5.14-4.43,8.66-4.43,10.56s.54,2.84,1.62,2.84c1.51,0,5.74-2.99,12.67-8.97,6.93-5.98,11.53-10.38,13.81-13.2,2.49-3.14,7.42-9.77,14.78-19.9Z" style="fill:#fff;"/><path d="M169.67,104.13c12.78-14.51,23.66-21.77,32.65-21.77,2.22,0,4.05,.66,5.48,1.99,1.43,1.33,2.15,3.05,2.15,5.16s-1.5,5.65-4.51,10.6-5.78,9.14-8.33,12.55c-1.35,1.73-2.88,2.6-4.59,2.6s-3.03-.62-3.98-1.87c-.95-1.25-1.42-2.71-1.42-4.39,0-3.74,2-7.96,6.01-12.67l-.16-.16c-1.79,.16-6.21,3.68-13.28,10.56-7.07,6.88-13.08,13.04-18.03,18.48-4.95,5.44-10.33,12.06-16.12,19.86-1.68,2.33-3.1,3.49-4.26,3.49s-2.71-.37-4.63-1.1c-1.92-.73-3.09-1.26-3.49-1.58-.41-.33-.61-.87-.61-1.62s.22-1.64,.65-2.64c.43-1,1.23-2.42,2.4-4.26,1.17-1.84,2.92-4.82,5.28-8.93,2.35-4.11,6.02-10.34,11-18.68,4.98-8.34,7.96-13.37,8.93-15.11,2.06-3.57,3.74-6.17,5.04-7.8,2.44-3.09,6.55-4.63,12.35-4.63,1.3,0,1.95,.81,1.95,2.44,0,2.55-2.36,7.34-7.07,14.38l-3.41,5.12Z" style="fill:#fff;"/><path d="M257.06,43.78l3.33,.81c.49,0,.92,.24,1.3,.73,.38,.49,.57,.95,.57,1.38s-.57,1.6-1.71,3.49c-1.14,1.9-2.48,4.05-4.02,6.46-1.54,2.41-2.37,3.72-2.48,3.94,4.22-.32,7.21-.49,8.97-.49s2.96,.12,3.61,.37c.65,.24,1.39,.92,2.23,2.03,.84,1.11,1.61,1.95,2.31,2.52,.7,.57,1.06,1.42,1.06,2.56s-.69,2.1-2.07,2.88c-1.38,.79-2.86,1.26-4.43,1.42-12.56,1.25-19.49,1.9-20.79,1.95-4.39,6.71-10.52,17.18-18.4,31.39-7.88,14.21-12.06,23.11-12.55,26.68-.22,1.62-.32,2.95-.32,3.98,0,2.11,1.11,3.17,3.33,3.17s4.68-.85,7.39-2.56c2.71-1.71,5.2-3.56,7.47-5.56,6.06-5.41,9.31-8.12,9.75-8.12,1.41,0,2.11,2.44,2.11,7.31,0,2.65-1.22,5.04-3.65,7.15-5.47,4.71-10.07,8.26-13.81,10.64s-7.47,3.57-11.21,3.57c-.81,0-1.57-.08-2.27-.24-4.33-.81-7.51-2.4-9.54-4.75-2.03-2.36-3.03-5.54-3.01-9.54,.03-4.01,1.22-8.87,3.57-14.58,2.36-5.71,5.32-11.79,8.89-18.23,5.85-10.5,11.7-20.36,17.54-29.56l-3.09,.41c-6.28,.7-9.94,1.06-10.96,1.06h-.73c-1.57,0-3.09-.31-4.55-.93-1.46-.62-2.19-1.39-2.19-2.31s.39-1.81,1.18-2.68c.78-.87,1.26-1.54,1.42-2.03,.38-1.19,1.8-2.52,4.26-3.98s4.32-2.23,5.56-2.32c1.25-.08,2.45-.15,3.61-.2,1.16-.05,2.46-.11,3.9-.16,1.43-.05,2.53-.11,3.29-.16l7.31-.33c4.55-6.82,7.67-11.21,9.38-13.16s2.69-3.02,2.96-3.21c.27-.19,.81-.28,1.62-.28l3.82-.49Z" style="fill:#fff;"/><path d="M276.63,130.12c0,1.62-.16,2.79-.49,3.49-2.65,5.42-6.88,9.79-12.67,13.12s-10.83,5-15.11,5-7.96-1.44-11.05-4.3-4.63-5.79-4.63-8.77,1.49-7.31,4.47-13c2.98-5.69,5.96-10.94,8.93-15.76,2.98-4.82,4.47-7.43,4.47-7.84s-.56-1.2-1.67-2.4c-1.11-1.19-1.67-2.07-1.67-2.64s1.12-2.06,3.37-4.47c2.25-2.41,4.98-4.79,8.2-7.15,3.22-2.35,5.69-3.53,7.39-3.53s3.23,.76,4.59,2.27c1.35,1.52,2.03,2.9,2.03,4.14s-6.44,12.97-19.33,35.17c-.16,.33-.61,1.04-1.34,2.15-.73,1.11-1.3,2.03-1.71,2.76-.41,.73-.88,1.61-1.42,2.64-1.08,2.17-1.62,3.98-1.62,5.44,0,1.84,1.25,2.76,3.74,2.76s5.08-.85,7.76-2.56c2.68-1.71,5-3.59,6.94-5.64,5.09-5.47,7.99-8.2,8.69-8.2,1.41,0,2.11,2.44,2.11,7.31Zm13.16-70.91c0,3.09-1.44,6.19-4.3,9.3-2.87,3.11-5.86,4.67-8.97,4.67s-4.67-1.62-4.67-4.87,1.37-6.35,4.1-9.3c2.73-2.95,5.75-4.43,9.05-4.43,1.46,0,2.63,.41,3.49,1.22,.87,.81,1.3,1.95,1.3,3.41Z" style="fill:#fff;"/><path d="M323.46,130.36c2.79-1.79,4.59-3.02,5.4-3.7,.81-.68,1.76-1.47,2.84-2.4,1.08-.92,1.97-1.38,2.68-1.38,1.08,0,1.62,1.23,1.62,3.7s-1.21,5.12-3.61,7.96c-2.41,2.84-5.4,5.25-8.97,7.23s-7.39,3.7-11.45,5.16c-8.07,2.98-14.93,4.47-20.59,4.47s-10.76-1.86-15.31-5.56c-4.55-3.71-6.82-8.55-6.82-14.54s1.49-11.97,4.47-17.95c2.98-5.98,6.81-11.24,11.49-15.76,4.68-4.52,10.12-8.19,16.33-11.01,6.2-2.81,12.33-4.22,18.4-4.22,2.92,0,5.55,.84,7.88,2.52,2.33,1.68,3.49,3.98,3.49,6.9s-1.45,6.43-4.35,10.52c-2.9,4.09-5.84,6.13-8.81,6.13-3.47,0-5.2-1.65-5.2-4.95,0-.87,.81-2.41,2.44-4.63,1.62-2.22,2.44-3.72,2.44-4.51s-.3-1.18-.89-1.18c-2.98,0-6.17,1.03-9.58,3.09-3.41,2.06-6.51,4.22-9.3,6.5-2.79,2.27-5.43,4.82-7.92,7.63-5.41,6.12-8.12,12.48-8.12,19.09,0,2.65,.85,4.94,2.56,6.86,1.71,1.92,4.57,2.88,8.61,2.88s8.08-.47,12.14-1.42c4.06-.95,7.4-1.98,10.03-3.09,2.63-1.11,5.33-2.56,8.12-4.35Z" style="fill:#fff;"/></g><g><path d="M331.71,5c5.3,0,16.14,.78,16.14,8V57.84c0,7.22-10.85,8-16.14,8h-4.85c-7.14,0-23.19-10.22-23.19-17.33V22.33c0-7.12,16.06-17.33,23.19-17.33h4.85m0-5h-4.85c-5.39,0-12.39,3.57-17.14,6.91-4.13,2.9-11.05,8.75-11.05,15.43v26.18c0,6.68,6.92,12.53,11.05,15.43,4.76,3.34,11.76,6.91,17.14,6.91h4.85c19.08,0,21.14-9.09,21.14-13V13c0-3.91-2.06-13-21.14-13h0Z" style="fill:#fff;"/><path d="M356.89,59.23h3.54c6.96,0,7.18,2.05,7.91,8.97l5.01,47.25h11.91l4.86-51.89c3.29-28.21,1.63-49.37-26.77-49.37h-6.48" style="fill:none; stroke:#fff; stroke-linejoin:round; stroke-width:5px;"/><path d="M309.64,22.52s3.64,10.61,0,22.32" style="fill:none; stroke:#fff; stroke-linecap:round; stroke-linejoin:round; stroke-width:5px;"/><polygon points="382.2 145.12 376.67 145.12 374.46 122.45 384.41 122.45 382.2 145.12" style="fill:none; stroke:#fff; stroke-linejoin:round; stroke-width:3px;"/><path d="M379.43,145.12v18.28c0,9.66-4.16,18.77-18.77,18.77,0,0-19.92,.62-29.95,5.76" style="fill:none; stroke:#fff; stroke-linejoin:round; stroke-width:3px;"/></g><g><path d="M172.56,188.86l-.05,.83c0,.86,.33,1.6,.98,2.22,.65,.62,1.26,.93,1.81,.93,4.13,0,7.79-.62,10.97-1.86,3.18-1.24,4.78-2.48,4.78-3.72,0-.58-.58-1.09-1.73-1.52-1.15-.43-3.1-.96-5.83-1.6-2.74-.64-4.72-1.14-5.96-1.5s-2.22-.7-2.94-1.01c-.72-.31-1.46-.74-2.22-1.29-1.62-1.14-2.43-2.83-2.43-5.09s.83-4.49,2.5-6.71c1.67-2.22,3.76-4.12,6.27-5.71,2.51-1.58,5.21-2.98,8.11-4.18,5.71-2.38,10.52-3.56,14.41-3.56s6.18,.83,7.07,2.48c.28,.59,.41,1.24,.41,1.96v.36c0,1.82-.39,3.25-1.16,4.29s-2,1.96-3.67,2.79c-1.67,.83-3,1.24-3.98,1.24s-1.6-.07-1.86-.21c-.26-.14-.47-.32-.65-.54-.17-.22-.39-.39-.65-.49-.26-.1-.39-.36-.39-.77s.17-.83,.52-1.27c.34-.43,.58-.89,.72-1.37-2.27,.1-4.65,.63-7.12,1.57-2.48,.95-4.6,2.01-6.38,3.18-1.77,1.17-3.24,2.29-4.41,3.36-1.17,1.07-1.76,1.85-1.76,2.35s.79,.9,2.38,1.21c7.13,1.41,11.81,2.63,14.04,3.67,2.24,1.03,3.79,2.2,4.65,3.51,.86,1.31,1.29,2.5,1.29,3.56,0,2.2-.88,4.29-2.63,6.25s-3.92,3.56-6.51,4.8c-5.54,2.72-10.37,4.08-14.48,4.08s-6.95-.63-8.52-1.88c-1.57-1.26-2.35-2.74-2.35-4.47s.44-3.31,1.32-4.78c.88-1.46,2-2.19,3.38-2.19s2.07,.36,2.07,1.08Z" style="fill:#fff;"/><path d="M240.81,159.84c1.03,0,2.09,.46,3.18,1.39,1.08,.93,1.63,2.35,1.63,4.26s-.67,4.39-2.01,7.43c-1.34,3.05-3.18,6.14-5.52,9.29s-4.91,6.11-7.72,8.88c-2.81,2.77-5.83,5.04-9.09,6.82s-6.21,2.66-8.86,2.66-4.78-.83-6.38-2.5c-1.6-1.67-2.4-3.99-2.4-6.97s.73-6.27,2.19-9.89,3.35-6.81,5.65-9.58c2.31-2.77,4.8-5.26,7.49-7.46,5.61-4.51,10.53-6.76,14.77-6.76,1.89,0,3.32,.46,4.29,1.39,.34,.31,.52,.59,.52,.83v.31c.48-.07,1.24-.1,2.27-.1Zm-5.21,6.87h-.36c-1.21,0-1.81-.88-1.81-2.63-2.51,.83-5.15,2.27-7.9,4.34-2.75,2.07-5.21,4.51-7.38,7.33-4.41,5.65-6.64,10.41-6.71,14.3,0,1.93,.71,2.89,2.12,2.89s3.51-.93,6.3-2.79,5.55-4.51,8.29-7.95c2.74-3.44,4.78-6.43,6.14-8.96,1.36-2.53,2.04-4.25,2.04-5.16s-.24-1.37-.72-1.37Z" style="fill:#fff;"/><path d="M271.43,191.23c0,1.52,1.03,2.27,3.1,2.27,1.1,0,2.49-.55,4.16-1.65,1.67-1.1,3.17-2.31,4.52-3.61,3.58-3.54,5.61-5.32,6.09-5.32,.89,0,1.34,1.29,1.34,3.87s-.81,4.35-2.43,5.32c-4.92,4.44-8.73,7.14-11.41,8.11-1.51,.52-3.18,.76-5.01,.72-1.83-.03-3.63-.83-5.42-2.38s-2.68-3.43-2.68-5.65,.58-4.74,1.76-7.56c1.17-2.82,2.37-5.24,3.59-7.25,1.22-2.01,2.73-4.35,4.52-7.02,1.79-2.67,2.74-4.33,2.84-4.98l-.1-.1c-1.14,.1-3.95,2.34-8.44,6.71-4.49,4.37-8.2,8.18-11.13,11.41-2.93,3.24-6.42,7.56-10.48,12.96-1.14,1.48-2.07,2.22-2.79,2.22s-1.7-.23-2.92-.7c-1.22-.46-1.97-.8-2.25-1.01-.27-.21-.41-.52-.41-.93s.12-.92,.36-1.52c.24-.6,.47-1.1,.7-1.5,.22-.4,.59-1.01,1.11-1.83s1.54-2.57,3.07-5.24c1.53-2.67,3.88-6.65,7.05-11.95,3.17-5.3,5.06-8.5,5.68-9.6,1.31-2.27,2.38-3.92,3.2-4.96,1.55-1.96,4.16-2.94,7.85-2.94,.83,0,1.24,.52,1.24,1.55,0,1.62-1.5,4.66-4.49,9.14l-2.17,3.25c5.96-6.61,10.98-10.79,15.08-12.55,2-.86,3.79-1.29,5.4-1.29s2.87,.43,3.82,1.29c.95,.86,1.42,1.82,1.42,2.87s-.36,2.31-1.08,3.77c-.72,1.46-1.46,2.77-2.19,3.92-.74,1.15-1.71,2.61-2.92,4.36-1.21,1.76-1.86,2.71-1.96,2.87-.1,.15-.37,.57-.8,1.24-.43,.67-.75,1.16-.96,1.47-.21,.31-.55,.85-1.03,1.63-.48,.77-.87,1.42-1.16,1.94-.29,.52-.65,1.15-1.08,1.91-.43,.76-.77,1.41-1.03,1.96-.26,.55-.53,1.15-.8,1.81-.48,1.21-.72,2.2-.72,2.99Z" style="fill:#fff;"/><path d="M301.87,164.88c3.32-2.29,6.58-4.05,9.78-5.29s5.97-1.86,8.31-1.86,3.84,.67,4.49,2.01c1.34-1.55,3.01-2.38,5.01-2.48,.58-.03,1.31-.05,2.17-.05s1.39,.11,1.6,.34c.21,.22,.4,.65,.57,1.27,.17,.62,.28,.96,.31,1.03,.03,.07,.05,.18,.05,.34s-.09,.34-.26,.57c-.17,.22-.37,.44-.59,.65-.22,.21-.35,.33-.39,.36-7.61,10.91-15.39,23.36-23.34,37.33,8.19-7.26,14.92-13.11,20.25-14.87,2.58-.85,9.66-2.08,10.04-2.08,.55,0,16.38-1.81,16.55-1.1,.17,.71,5.37-.19,5.37,1.12s6.39,1.06-6,1.93-22.87,6.49-24.32,7.42c-1.45,.93-3.32,2.13-5.63,3.61-2.31,1.48-4.75,3.12-7.33,4.91-6.2,4.3-11.29,8.83-15.28,13.58-5.16,6.23-8.86,11.26-11.1,15.08-.83,1.48-2.22,2.22-4.18,2.22-3.89,0-5.83-1.84-5.83-5.52s1.84-7.59,5.52-11.51c2.75-2.93,5.28-5.32,7.59-7.18,2.31-1.86,3.56-2.91,3.77-3.15,2.55-3.82,6.01-9.24,10.38-16.26-3.72,3.89-7.32,6.99-10.82,9.29-3.49,2.31-6.1,3.46-7.82,3.46-5.27,0-7.9-2.25-7.9-6.76,0-3.58,.91-7.19,2.74-10.84,1.82-3.65,4.16-6.91,7.02-9.78,2.86-2.87,5.95-5.46,9.27-7.74Zm19.65-1.32c-3.99,.86-7.75,2.28-11.26,4.26-3.51,1.98-6.4,4.1-8.67,6.35-2.27,2.25-4.23,4.57-5.89,6.94-3.1,4.44-4.65,7.88-4.65,10.33,0,.59,.15,.88,.44,.88s.95-.31,1.96-.93,2.45-1.68,4.31-3.18c1.86-1.5,3.92-3.28,6.2-5.34,5.27-4.85,11.12-11.29,17.55-19.31Z" style="fill:#fff;"/></g></g><text transform="translate(41.08 67.87) scale(.95 1)" style="fill:#fff; font-family:NanumSquareRoundL, NanumSquareRound; font-size:22.6px; letter-spacing:-.03em;"><tspan x="0" y="0">Guess the Music</tspan></text></g></g></g></svg>