<?xml version="1.0" encoding="UTF-8"?><svg xmlns="http://www.w3.org/2000/svg" xmlns:xlink="http://www.w3.org/1999/xlink" viewBox="0 0 187.22 180"><defs><style>.e{fill:#fff;}.f{fill:#48464d;}.g{fill:#111;}.h{fill:url(#d);}.i{fill:#161616;}.j{fill:#313234;}</style><linearGradient id="d" x1="79.75" y1="72.08" x2="114.95" y2="107.28" gradientTransform="matrix(1, 0, 0, 1, 0, 0)" gradientUnits="userSpaceOnUse"><stop offset="0" stop-color="#e61673"/><stop offset="1" stop-color="#172a88"/></linearGradient></defs><g id="a"/><g id="b"><g id="c"><g><g><path d="M1.25,94.26c-.06,0-.13,0-.2-.02-.26-.05-.49-.2-.64-.43-.15-.22-.2-.49-.15-.75,1.3-6.49,5.62-15.23,12.84-25.98,.19-.28,.5-.44,.83-.44,.2,0,.39,.06,.56,.17,.22,.15,.37,.38,.42,.64,.05,.26,0,.53-.15,.75-7.07,10.53-11.29,19.03-12.54,25.26-.09,.47-.5,.8-.98,.8Z" style="fill:#fff;"/><path d="M13.94,66.89c.14,0,.29,.04,.42,.13,.34,.23,.44,.7,.2,1.04-7.09,10.56-11.32,19.09-12.58,25.35-.07,.36-.38,.6-.73,.6-.05,0-.1,0-.15-.01-.41-.08-.67-.48-.59-.88,1.29-6.45,5.6-15.17,12.8-25.89,.14-.22,.38-.33,.62-.33m0-.5h0c-.42,0-.81,.21-1.04,.55C5.66,77.72,1.33,86.49,.02,93.01c-.07,.33,0,.66,.19,.94,.19,.28,.47,.47,.8,.53,.08,.02,.17,.02,.25,.02,.59,0,1.11-.42,1.22-1,1.24-6.2,5.44-14.66,12.5-25.17,.19-.28,.25-.61,.19-.94-.06-.33-.25-.61-.53-.8-.21-.14-.45-.21-.7-.21h0Z" style="fill:#111;"/></g><g><path d="M97.22,179.5c-49.35,0-89.5-40.15-89.5-89.5,0-14.49,3.54-28.87,10.24-41.61C33.5,18.85,63.87,.5,97.22,.5c49.35,0,89.5,40.15,89.5,89.5s-40.15,89.5-89.5,89.5Z" style="fill:#313234;"/><path d="M97.22,1c49.15,0,89,39.85,89,89s-39.85,89-89,89S8.22,139.15,8.22,90c0-14.94,3.68-29.01,10.18-41.38C33.29,20.31,63,1,97.22,1m0-1C63.68,0,33.14,18.45,17.51,48.16c-6.74,12.81-10.3,27.27-10.3,41.84,0,49.63,40.37,90,90,90s90-40.37,90-90S146.84,0,97.22,0h0Z" style="fill:#111;"/></g><path d="M97.35,90.03L27.98,33.72C13.59,51.49,6.68,74.11,8.41,96.61c.31,4.03,.9,8.05,1.77,12.05l87.17-18.63Z" style="fill:#48464d;"/><path d="M13.94,121.3c2.06,5.4,4.66,10.68,7.85,15.76s7.1,10.1,11.26,14.42l64.29-61.46L13.94,121.3Z" style="fill:#48464d;"/><path d="M131.84,89.68c0,19.05-15.44,34.49-34.49,34.49s-34.49-15.44-34.49-34.49c0-5.79,1.43-11.24,3.95-16.03,5.77-10.97,17.28-18.45,30.54-18.45,19.05,0,34.49,15.44,34.49,34.49Z" style="fill:#161616;"/><path d="M122.24,89.68c0,13.75-11.14,24.89-24.89,24.89s-24.89-11.14-24.89-24.89c0-4.18,1.03-8.11,2.85-11.57,4.17-7.92,12.47-13.32,22.04-13.32,13.75,0,24.89,11.14,24.89,24.89Z" style="fill:url(#d);"/><path d="M89.94,73.75c.52,0,1.01,.14,1.48,.4l21.69,12.52c.93,.54,1.48,1.5,1.48,2.57s-.55,2.03-1.48,2.57l-21.68,12.52c-.46,.27-.96,.4-1.48,.4-1.43,0-2.97-1.14-2.97-2.97v-25.04c0-1.83,1.54-2.97,2.97-2.97m0-.8c-1.97,0-3.77,1.57-3.77,3.77v25.04c0,2.2,1.8,3.77,3.77,3.77,.63,0,1.27-.16,1.88-.51l21.68-12.52c2.51-1.45,2.51-5.07,0-6.52l-21.68-12.52c-.61-.35-1.25-.51-1.88-.51h0Z" style="fill:#fff;"/><g><path d="M90.26,103.08c-.91,0-1.89-.72-1.89-1.89v-24.2c0-1.17,.98-1.89,1.89-1.89,.33,0,.65,.09,.94,.26l20.96,12.1c.59,.34,.94,.95,.94,1.63s-.35,1.29-.94,1.63l-20.96,12.1c-.29,.17-.61,.26-.94,.26h0Z" style="fill:#fff;"/><path d="M90.26,75.5c.26,0,.51,.07,.74,.2l20.96,12.1c.47,.27,.74,.75,.74,1.29s-.28,1.02-.74,1.29l-20.96,12.1c-.23,.13-.48,.2-.74,.2-.38,0-.76-.15-1.04-.42-.29-.28-.45-.66-.45-1.07v-24.2c0-.92,.77-1.49,1.49-1.49m0-.8c-1.19,0-2.29,.95-2.29,2.29v24.2c0,1.33,1.1,2.29,2.29,2.29,.38,0,.77-.1,1.14-.31l20.96-12.1c1.52-.88,1.52-3.08,0-3.96l-20.96-12.1c-.37-.21-.76-.31-1.14-.31h0Z" style="fill:#fff;"/></g><g><path d="M94.27,28.83c-.83,0-1.5-.67-1.5-1.5v-6.73c0-.83,.67-1.5,1.5-1.5s1.5,.67,1.5,1.5v6.73c0,.83-.67,1.5-1.5,1.5Z" style="fill:#fff;"/><path d="M94.27,19.35c.69,0,1.25,.56,1.25,1.25v6.73c0,.69-.56,1.25-1.25,1.25s-1.25-.56-1.25-1.25v-6.73c0-.69,.56-1.25,1.25-1.25m0-.5c-.96,0-1.75,.79-1.75,1.75v6.73c0,.96,.79,1.75,1.75,1.75s1.75-.79,1.75-1.75v-6.73c0-.96-.79-1.75-1.75-1.75h0Z" style="fill:#111;"/></g><g><path d="M100,28.83c-.83,0-1.5-.67-1.5-1.5v-6.73c0-.83,.67-1.5,1.5-1.5s1.5,.67,1.5,1.5v6.73c0,.83-.67,1.5-1.5,1.5Z" style="fill:#fff;"/><path d="M100,19.35c.69,0,1.25,.56,1.25,1.25v6.73c0,.69-.56,1.25-1.25,1.25s-1.25-.56-1.25-1.25v-6.73c0-.69,.56-1.25,1.25-1.25m0-.5c-.96,0-1.75,.79-1.75,1.75v6.73c0,.96,.79,1.75,1.75,1.75s1.75-.79,1.75-1.75v-6.73c0-.96-.79-1.75-1.75-1.75h0Z" style="fill:#111;"/></g><g><path d="M169.25,56.19c-.41,0-.78-.25-.93-.63-.1-.25-.1-.52,0-.77,.11-.25,.3-.44,.55-.53,7.59-3.03,11.81-8.64,14.11-18.77,.1-.45,.51-.78,.98-.78,.07,0,.15,0,.22,.02,.54,.12,.88,.66,.75,1.2-2.43,10.7-7.15,16.93-15.31,20.19-.12,.05-.24,.07-.37,.07Z" style="fill:#fff;"/><path d="M183.96,34.96c.05,0,.11,0,.16,.02,.4,.09,.66,.49,.57,.9-2.41,10.61-7.09,16.79-15.16,20.01-.09,.04-.19,.05-.28,.05-.3,0-.58-.18-.7-.47-.15-.38,.03-.82,.42-.97,7.67-3.06,11.94-8.73,14.26-18.95,.08-.35,.4-.58,.73-.58m0-.5h0c-.58,0-1.09,.41-1.22,.97-2.28,10.04-6.45,15.6-13.95,18.59-.31,.12-.55,.36-.69,.67-.13,.31-.14,.65-.01,.96,.19,.48,.65,.79,1.16,.79,.16,0,.32-.03,.47-.09,8.24-3.29,13.01-9.57,15.46-20.36,.15-.67-.27-1.34-.94-1.5-.09-.02-.18-.03-.27-.03h0Z" style="fill:#111;"/></g><g><path d="M98.68,41.38c-1.65,0-4.77-.3-7.1-2.32-.62-.54-.69-1.49-.15-2.12,.28-.33,.7-.52,1.13-.52,.36,0,.71,.13,.98,.37,1.65,1.43,4.12,1.59,5.1,1.59,.31,0,.62-.01,.91-.04,4.64-.41,7.34-2.34,8.73-6.24-1.05-.67-1.55-1.43-1.56-1.44-.22-.34-.29-.74-.2-1.13s.32-.73,.65-.94c.24-.15,.52-.24,.81-.24,.5,0,.97,.25,1.25,.67,.03,.04,.77,1.06,2.58,1.06,.32,0,.65-.03,.99-.09,.09-.02,.18-.02,.27-.02,.72,0,1.34,.52,1.47,1.23,.07,.39-.01,.79-.24,1.12s-.57,.55-.97,.62c-.53,.1-1.06,.15-1.56,.15-.23,0-.43-.02-.63-.04-1.77,5.06-5.48,7.77-11.33,8.29-.26,.02-.65,.05-1.14,.05Z" style="fill:#fff;"/><path d="M107.98,28.6c.41,0,.8,.2,1.04,.56,.06,.08,.86,1.17,2.79,1.17,.32,0,.66-.03,1.04-.1,.08-.01,.15-.02,.23-.02,.59,0,1.12,.42,1.23,1.03,.12,.68-.33,1.33-1.01,1.45-.54,.1-1.05,.14-1.51,.14-.29,0-.54-.04-.81-.07-1.7,5.07-5.37,7.8-11.18,8.32-.25,.02-.64,.05-1.12,.05-1.74,0-4.71-.33-6.94-2.26-.52-.45-.58-1.24-.12-1.76,.25-.28,.59-.43,.94-.43,.29,0,.58,.1,.82,.31,1.41,1.22,3.5,1.65,5.27,1.65,.32,0,.63-.01,.93-.04,4.82-.43,7.61-2.5,9-6.6-1.08-.63-1.61-1.4-1.65-1.47-.37-.58-.21-1.35,.38-1.73,.21-.13,.44-.2,.67-.2m0-.5h0c-.33,0-.66,.1-.94,.28-.39,.25-.67,.64-.77,1.1-.1,.46-.01,.92,.24,1.32,.02,.03,.49,.74,1.46,1.41-1.37,3.67-3.99,5.5-8.44,5.9-.29,.03-.58,.04-.88,.04-.96,0-3.35-.15-4.94-1.53-.32-.28-.73-.43-1.15-.43-.51,0-.99,.22-1.32,.6-.63,.73-.55,1.84,.17,2.47,2.39,2.07,5.57,2.38,7.26,2.38,.51,0,.91-.03,1.16-.05,5.89-.53,9.65-3.24,11.48-8.27,.15,.01,.3,.02,.46,.02,.51,0,1.05-.05,1.6-.15,.46-.08,.86-.34,1.13-.73,.27-.38,.37-.85,.28-1.31-.15-.83-.87-1.44-1.72-1.44-.1,0-.21,0-.32,.03-.33,.06-.65,.09-.95,.09-1.68,0-2.35-.92-2.38-.96-.32-.48-.86-.77-1.45-.77h0Z" style="fill:#111;"/></g></g></g></g></svg>