<svg xmlns="http://www.w3.org/2000/svg" xmlns:xlink="http://www.w3.org/1999/xlink" viewBox="0 0 395.38 180">
    <defs>
        <linearGradient id="무제_그라디언트_2" x1="175.18" y1="1106.26" x2="210.38" y2="1071.06"
            gradientTransform="matrix(1, 0, 0, -1, 0, 1178.34)" gradientUnits="userSpaceOnUse">
            <stop offset="0" stop-color="#d6226d" />
            <stop offset="1" stop-color="#192e7a" />
        </linearGradient>
    </defs>
    <g id="레이어_2" data-name="레이어 2">
        <g id="레이어_1-2" data-name="레이어 1">
            <g id="b">
                <path
                    d="M96.68,94.26a.71.71,0,0,1-.2,0,1,1,0,0,1-.64-.43,1,1,0,0,1-.15-.75c1.3-6.49,5.62-15.23,12.84-26a1,1,0,0,1,.83-.44,1,1,0,0,1,.56.17,1,1,0,0,1,.27,1.39c-7.07,10.53-11.29,19-12.54,25.26a1,1,0,0,1-1,.8Z"
                    style="fill:#fff" />
                <path
                    d="M109.37,66.89a.75.75,0,0,1,.62,1.17C102.9,78.62,98.67,87.15,97.41,93.41a.74.74,0,0,1-.73.6h-.15a.75.75,0,0,1-.59-.88c1.29-6.45,5.6-15.17,12.8-25.89a.73.73,0,0,1,.62-.33m0-.5h0a1.26,1.26,0,0,0-1,.55C101.09,77.72,96.76,86.49,95.45,93a1.21,1.21,0,0,0,.19.94,1.23,1.23,0,0,0,.8.53,1.06,1.06,0,0,0,.25,0,1.24,1.24,0,0,0,1.22-1c1.24-6.2,5.44-14.66,12.5-25.17a1.25,1.25,0,0,0,.19-.94,1.23,1.23,0,0,0-.53-.8,1.25,1.25,0,0,0-.7-.21h0Z"
                    style="fill:#101111" />
                <path d="M192.65,179.5A89.5,89.5,0,1,1,282.15,90,89.6,89.6,0,0,1,192.65,179.5Z" style="fill:#313234" />
                <path
                    d="M192.65,1a88.94,88.94,0,1,1-78.82,47.62A89,89,0,0,1,192.65,1m0-1a90,90,0,1,0,90,90,89.84,89.84,0,0,0-90-90Z"
                    style="fill:#101111" />
                <path d="M192.78,90,123.41,33.72a89,89,0,0,0-17.8,74.94Z" style="fill:#48464d" />
                <path d="M109.37,121.3a89.74,89.74,0,0,0,7.85,15.76,90.77,90.77,0,0,0,11.26,14.42L192.77,90Z"
                    style="fill:#48464d" />
                <path d="M227.27,89.68A34.49,34.49,0,1,1,192.78,55.2a34.49,34.49,0,0,1,34.49,34.48Z"
                    style="fill:#161616" />
                <path d="M217.67,89.68a24.89,24.89,0,1,1-24.89-24.89A24.89,24.89,0,0,1,217.67,89.68Z"
                    style="fill:url(#무제_그라디언트_2)" />
                <path
                    d="M185.37,73.75a3,3,0,0,1,1.48.4l21.69,12.52a3,3,0,0,1,0,5.14l-21.68,12.52a2.89,2.89,0,0,1-1.48.4,3,3,0,0,1-3-3v-25a3,3,0,0,1,3-3m0-.8a3.77,3.77,0,0,0-3.77,3.77v25a3.76,3.76,0,0,0,5.65,3.26L208.94,92.5a3.76,3.76,0,0,0,0-6.52L187.26,73.46a3.75,3.75,0,0,0-1.88-.51Z"
                    style="fill:#fff" />
                <path
                    d="M185.69,103.08a1.89,1.89,0,0,1-1.89-1.89V77a1.89,1.89,0,0,1,1.89-1.89,1.85,1.85,0,0,1,.94.26l21,12.1a1.88,1.88,0,0,1,0,3.26l-21,12.1a1.85,1.85,0,0,1-.94.26Z"
                    style="fill:#fff" />
                <path
                    d="M185.69,75.5a1.49,1.49,0,0,1,.74.2l21,12.1a1.46,1.46,0,0,1,.74,1.29,1.48,1.48,0,0,1-.74,1.29l-21,12.1a1.49,1.49,0,0,1-.74.2,1.51,1.51,0,0,1-1-.42,1.47,1.47,0,0,1-.45-1.07V77a1.49,1.49,0,0,1,1.49-1.49m0-.8A2.29,2.29,0,0,0,183.4,77v24.2a2.28,2.28,0,0,0,3.43,2l21-12.1a2.29,2.29,0,0,0,0-4l-21-12.1a2.3,2.3,0,0,0-1.14-.31Z"
                    style="fill:#fff" />
                <path d="M189.7,28.83a1.5,1.5,0,0,1-1.5-1.5V20.6a1.5,1.5,0,1,1,3,0v6.73A1.5,1.5,0,0,1,189.7,28.83Z"
                    style="fill:#fff" />
                <path
                    d="M189.7,19.35A1.25,1.25,0,0,1,191,20.6v6.73a1.25,1.25,0,0,1-2.5,0V20.6a1.25,1.25,0,0,1,1.25-1.25m0-.5A1.76,1.76,0,0,0,188,20.6v6.73a1.75,1.75,0,0,0,3.5,0V20.6a1.76,1.76,0,0,0-1.75-1.75Z"
                    style="fill:#101111" />
                <path d="M195.43,28.83a1.5,1.5,0,0,1-1.5-1.5V20.6a1.5,1.5,0,1,1,3,0v6.73A1.5,1.5,0,0,1,195.43,28.83Z"
                    style="fill:#fff" />
                <path
                    d="M195.43,19.35a1.25,1.25,0,0,1,1.25,1.25v6.73a1.25,1.25,0,0,1-2.5,0V20.6a1.25,1.25,0,0,1,1.25-1.25m0-.5a1.76,1.76,0,0,0-1.75,1.75v6.73a1.75,1.75,0,0,0,3.5,0V20.6a1.76,1.76,0,0,0-1.75-1.75Z"
                    style="fill:#101111" />
                <path
                    d="M289,94.26a1,1,0,0,1-1-.8c-1.25-6.23-5.47-14.73-12.54-25.26a1,1,0,0,1,.27-1.39,1,1,0,0,1,.56-.17,1,1,0,0,1,.83.44c7.22,10.75,11.54,19.49,12.84,26a1,1,0,0,1-.15.75,1,1,0,0,1-.64.43.71.71,0,0,1-.2,0Z"
                    style="fill:#fff" />
                <path
                    d="M276.3,66.9a.73.73,0,0,1,.62.33c7.2,10.72,11.51,19.44,12.8,25.89a.75.75,0,0,1-.59.88H289a.74.74,0,0,1-.73-.6c-1.26-6.26-5.49-14.79-12.58-25.35a.75.75,0,0,1,.62-1.17m0-.51h0a1.25,1.25,0,0,0-.7.21,1.23,1.23,0,0,0-.53.8,1.25,1.25,0,0,0,.19.94c7.06,10.51,11.26,19,12.5,25.17a1.24,1.24,0,0,0,1.22,1,1.06,1.06,0,0,0,.25,0A1.23,1.23,0,0,0,290,94a1.21,1.21,0,0,0,.19-.94c-1.31-6.52-5.64-15.29-12.87-26.06a1.26,1.26,0,0,0-1-.55h0Z"
                    style="fill:#101111" />
                <path
                    d="M190.61,36.9a1.24,1.24,0,0,1-.71-2.27,8.16,8.16,0,0,1,7.3-.68,1.25,1.25,0,1,1-.92,2.32,5.66,5.66,0,0,0-5,.42A1.22,1.22,0,0,1,190.61,36.9Z"
                    style="fill:#fff;stroke:#0f1010;stroke-miterlimit:10;stroke-width:0.5px" />
            </g>
            <circle cx="311.36" cy="52.1" r="5.46"
                style="fill:#fff;stroke:#0f1010;stroke-miterlimit:10;stroke-width:2px" />
            <circle cx="330.25" cy="52.1" r="5.46"
                style="fill:#fff;stroke:#0f1010;stroke-miterlimit:10;stroke-width:2px" />
            <circle cx="349.14" cy="52.1" r="5.46"
                style="fill:#fff;stroke:#0f1010;stroke-miterlimit:10;stroke-width:2px" />
            <path
                d="M310.55,161.81h19.78c24.3,0,31.34-8.61,32.67-14.93s-3.36-11.91-9.24-10.34c-4.85,1.28-6,5.41-5.75,8.77s3.83,5,6.75,3.78,2-6.11-.22-6.36"
                style="fill:none;stroke:#fff;stroke-linecap:round;stroke-miterlimit:10;stroke-width:2px;stroke-dasharray:5,5,2,5,0,0" />
            <path d="M300.56,167h-1.62"
                style="fill:none;stroke:#fff;stroke-linecap:round;stroke-miterlimit:10;stroke-width:2px" />
            <path d="M304.22,167h7.4"
                style="fill:none;stroke:#fff;stroke-linecap:round;stroke-miterlimit:10;stroke-width:2px;stroke-dasharray:2.1129472255706787,5.282368183135986,0,0" />
            <path
                d="M311.62,167h12.47c28.91,0,35.31-1.69,40.64-3.9s11-5.7,13.25-15.26,1.68-16.7-.54-19.74c-1.42-2-5.32-3.4-7.14-.47a2.48,2.48,0,0,0,1,3.8"
                style="fill:none;stroke:#fff;stroke-linecap:round;stroke-miterlimit:10;stroke-width:2px;stroke-dasharray:5.282368183135986,5.282368183135986,2.1129472255706787,5.282368183135986,0,0" />
            <path d="M371.33,131.41a1.7,1.7,0,0,0,2.19-.67"
                style="fill:none;stroke:#fff;stroke-linecap:round;stroke-miterlimit:10;stroke-width:2px" />
            <path
                d="M289,172.3h27c33.17,0,37.59-.45,44.06-1A150.77,150.77,0,0,0,379,168.92c8.55-1.65,12.34-3.76,14.47-7.11,1.36-2.14,1.13-5.36-.27-6.32"
                style="fill:none;stroke:#fff;stroke-linecap:round;stroke-miterlimit:10;stroke-width:2px;stroke-dasharray:5,5,2,5,0,0" />
            <path
                d="M84.33,167.13H64.55c-24.3,0-31.34-8.62-32.68-14.93s3.37-11.91,9.25-10.35c4.84,1.29,6,5.42,5.74,8.77s-3.82,5-6.74,3.79-2-6.11.22-6.37"
                style="fill:none;stroke:#fff;stroke-linecap:round;stroke-miterlimit:10;stroke-width:2px;stroke-dasharray:5,5,2,5,0,0" />
            <path d="M94.32,172.3h1.62"
                style="fill:none;stroke:#fff;stroke-linecap:round;stroke-miterlimit:10;stroke-width:2px" />
            <path d="M91.05,172.3H84.21"
                style="fill:none;stroke:#fff;stroke-linecap:round;stroke-miterlimit:10;stroke-width:2px;stroke-dasharray:1.9544503688812256,4.8861260414123535,0,0" />
            <path
                d="M84.21,172.3H70.79c-28.91,0-38.83-1-44.52-2s-19.18-2-23.48-10.84.3-14,1.79-17.44c1-2.21,4.43-4.5,6.86-2.05a2.49,2.49,0,0,1-.15,3.93"
                style="fill:none;stroke:#fff;stroke-linecap:round;stroke-miterlimit:10;stroke-width:2px;stroke-dasharray:4.8861260414123535,4.8861260414123535,1.9544503688812256,4.8861260414123535,0,0" />
            <path d="M11.28,143.9A1.7,1.7,0,0,1,9,143.74"
                style="fill:none;stroke:#fff;stroke-linecap:round;stroke-miterlimit:10;stroke-width:2px" />
        </g>
    </g>
</svg>