<svg xmlns="http://www.w3.org/2000/svg" viewBox="0 0 534.84 280.02"><g id="레이어_2" data-name="레이어 2"><g id="레이어_1-2" data-name="레이어 1"><g style="opacity:0.85"><path d="M438.71,278.52c-7.17,0-15.09-6.37-16.36-18.56-.46-4.38-.18-9.69.13-15.84.39-7.74.84-16.52-.1-25.55l-5.82-55.88c-1.38-13.33-11.68-23.27-23.6-34.78-15.36-14.84-32.78-31.66-35.1-60.48a60.17,60.17,0,0,1,12.79-42.87A55.53,55.53,0,0,1,409.83,4c1.58-.12,3.18-.19,4.75-.19,29.82,0,54.19,23.42,56.69,54.47,2.28,28.36-9,47.19-18.92,63.81-7.9,13.21-14.72,24.62-13.3,38.23l5.81,55.88c.94,9,3.19,17.53,5.17,25,1.57,6,2.93,11.1,3.39,15.48,1.35,13.06-5.91,20.95-13.44,21.73-.42,0-.85.06-1.27.06Z" style="fill:#eabb67"/><path d="M414.58,5.34c29.5,0,52.77,23,55.19,53.09,4.05,50.35-35.5,70.47-32.22,102.07,0,0,4.13,39.64,5.82,55.88s7.54,30.74,8.55,40.5c1.26,12.11-5.33,19.38-12.1,20.09a10.38,10.38,0,0,1-1.12,0c-6.5,0-13.67-5.77-14.86-17.22-1-9.76,1.72-25.14,0-41.39l-5.81-55.88c-3.29-31.6-54.66-44.86-58.71-95.21C356.8,35.64,378.28,8.08,410,5.53c1.56-.13,3.1-.19,4.63-.19m0-3c-1.61,0-3.25.07-4.87.2a57,57,0,0,0-40.23,21.08,61.72,61.72,0,0,0-13.12,43.94c2.37,29.38,20,46.4,35.56,61.43,11.71,11.3,21.82,21.07,23.15,33.85l5.82,55.88c.93,8.92.48,17.64.09,25.32-.32,6.22-.59,11.58-.12,16.07,1.36,13.08,10,19.91,17.84,19.91a13.56,13.56,0,0,0,1.43-.07,15.8,15.8,0,0,0,11.23-7.06c2.08-3,4.38-8.34,3.55-16.32-.47-4.49-1.84-9.69-3.43-15.7-2-7.44-4.2-15.88-5.13-24.8l-5.81-55.88c-1.37-13.11,5.34-24.32,13.1-37.3,10.05-16.81,21.44-35.86,19.12-64.7a62.07,62.07,0,0,0-18.34-39.75,56.94,56.94,0,0,0-39.84-16.1Z" style="fill:#222"/><path d="M461.7,84.85,449.32,61.57,440.78,86.8,421.65,68.33,417,91.47,397.56,76.58l-4.12,22L377,85.56a153.64,153.64,0,0,0-5.28,16.38,119.43,119.43,0,0,0,13.59,16.28c29.47-20.6,49.51-24.19,78.52-21A82.58,82.58,0,0,0,470,63.33Z" style="fill:#a22934"/><path d="M363.59,86.46C400.68,55.42,445,52.07,469.09,53c-.07-.46-.16-.91-.25-1.37s-.13-.68-.2-1-.19-.92-.29-1.37c-.15-.62-.3-1.24-.46-1.85s-.26-.93-.4-1.39c-.08-.29-.16-.57-.25-.85-.48-1.55-1-3.08-1.61-4.57l-.24-.6c-.64-1.56-1.34-3.07-2.09-4.55-.06-.11-.12-.22-.17-.33q-1.22-2.31-2.61-4.49l-.07-.11c-1-1.5-2-2.95-3.09-4.34-48-.4-94,29.59-94,29.59l-4.13,3.14h0c0,.71-.06,1.41-.07,2.12,0,.39,0,.78,0,1.16s0,1,0,1.56c0,.32,0,.64,0,1,0,.85.07,1.71.14,2.58s.14,1.57.23,2.35A69,69,0,0,0,363.59,86.46Z" style="fill:#98c72c"/><path d="M418.58,57h-.34c-2.11-.16-3.94-1.76-5.14-4.51a19.81,19.81,0,0,1-1.33-9.23c.54-7.2,4-12.63,8.12-12.63h.34c2.11.16,3.94,1.76,5.14,4.51a19.81,19.81,0,0,1,1.33,9.23C426.16,51.58,422.67,57,418.58,57Z" style="fill:#fff"/><path d="M419.89,31.63h.26c3.57.27,6.06,5.94,5.55,12.67-.49,6.56-3.65,11.7-7.12,11.7h-.26c-3.57-.27-6.06-5.94-5.55-12.67.49-6.56,3.65-11.7,7.12-11.7m0-2h0c-4.62,0-8.54,5.83-9.12,13.55-.6,8.09,2.58,14.45,7.4,14.82h.41c4.62,0,8.54-5.83,9.12-13.55a20.77,20.77,0,0,0-1.41-9.71c-1.36-3.1-3.49-4.92-6-5.1l-.41,0Z" style="fill:#222"/><path d="M385.64,59.28c-4.06,0-7.6-5.38-8.24-12.52a19.85,19.85,0,0,1,1.2-9.25c1.17-2.76,3-4.39,5.08-4.57a2.82,2.82,0,0,1,.41,0c4.05,0,7.59,5.38,8.23,12.51.66,7.38-2.1,13.46-6.28,13.83Z" style="fill:#fff"/><path d="M384.09,33.92c3.45,0,6.65,5.08,7.23,11.6.6,6.72-1.8,12.43-5.37,12.74l-.31,0c-3.45,0-6.66-5.08-7.24-11.6-.6-6.72,1.8-12.43,5.37-12.75h.32m0-2h0l-.5,0c-4.81.43-7.9,6.84-7.18,14.91.68,7.66,4.65,13.43,9.23,13.43l.49,0c4.82-.43,7.9-6.85,7.18-14.92-.68-7.65-4.65-13.42-9.22-13.42Z" style="fill:#222"/><ellipse cx="416.87" cy="43.82" rx="5.4" ry="2.87" transform="translate(341.92 456.24) rotate(-85.7)" style="fill:#fff;stroke:#222;stroke-miterlimit:10;stroke-width:3px"/><ellipse cx="382.12" cy="46.34" rx="3.43" ry="6.45" transform="translate(-2.61 34.22) rotate(-5.11)" style="fill:#fff;stroke:#222;stroke-miterlimit:10;stroke-width:3px"/><path d="M407.8,82.57s4-17.23,18.15-14.37" style="fill:none;stroke:#222;stroke-linecap:round;stroke-miterlimit:10;stroke-width:2px"/><path d="M422.09,19.73s-4.87-5.28-9.28.75" style="fill:none;stroke:#222;stroke-miterlimit:10;stroke-width:2px"/><path d="M386.64,23.51s-7.61-4.8-9,6.4" style="fill:none;stroke:#222;stroke-miterlimit:10;stroke-width:2px"/></g><path d="M3.54,244.47l36.9-2.3a2.93,2.93,0,0,0,2.67-1.73L84,153.5a2.93,2.93,0,0,0-.22-2.78l-16.45-25.3a2.92,2.92,0,0,0-5,.2L.35,239.9A2.93,2.93,0,0,0,1.79,244l.62.25A2.93,2.93,0,0,0,3.54,244.47Z" style="fill:#c9c9c9"/><path d="M3,244.47,60.06,139.6l23.2,16.73-38,84.22a6.65,6.65,0,0,1-6.07,3.92Z" style="fill:#999899"/><path d="M107.3,262.58c-29.93,0-41.42-12.93-45.78-23.78-9.59-23.83-5.73-91.56-5.26-99.21a229.62,229.62,0,0,1,5.05-35l-.13-.12a22,22,0,0,1-7-5.09c-8.21-9-6.83-19.79-5.37-31.22C50.39,55.85,53.62,50,61.45,45.75c4.22-11.69,16.8-31.58,53.41-31.58,2.26,0,4.61.08,7,.23,41,2.66,51.81,25.84,54.64,38.46A22,22,0,0,1,184,56.1a23.72,23.72,0,0,1,7.56,8.26,14.33,14.33,0,0,1,3.95,10.23l0,.65-.15.76c.49,2.74.86,5.75,1.28,9.51,1.45,13.13-.56,19.66-8,25.9a18.87,18.87,0,0,1-6.37,3.44,16.52,16.52,0,0,1-3.13,2.91c0,.31,0,.63,0,.94a55.47,55.47,0,0,1,18.17,21.55,66.2,66.2,0,0,1,4.91,14.32,15.16,15.16,0,0,1,2.26,3.32,10.56,10.56,0,0,1,.73,7.48,9.65,9.65,0,0,1-2,3.68,9.24,9.24,0,0,1-.65,1.48,9.08,9.08,0,0,1-7.91,4.83h-.2a10.11,10.11,0,0,1-7-2.83l-.52-.11c1.58,6.8,3.1,12.79,4.52,18.34,3.47,13.6,6.2,24.34,6.73,36.27.59,13.54-4.3,21.63-8.51,26-6,6.24-14.52,9.54-24.72,9.54Z" style="fill:#cecece"/><path d="M114.86,21.67c2.08,0,4.24.07,6.5.21,40.89,2.66,47.56,26.7,48.53,37.05l.21.14a8.71,8.71,0,0,1,1.23.64,16,16,0,0,1,8.41,2.6A16.34,16.34,0,0,1,185.48,69,6.76,6.76,0,0,1,188,74.43L187.66,76c.61,3,1,6.42,1.46,10.36,1.34,12.09-.8,15.53-5.33,19.35a13.85,13.85,0,0,1-6.11,2.63,9,9,0,0,1-6.19,4.72c.07,3.17.18,6.45.36,9.88a47.1,47.1,0,0,1,18.73,20.59,59.4,59.4,0,0,1,4.77,14.76,10.57,10.57,0,0,1,2.4,2.89,3,3,0,0,1,.28,2.17,1.93,1.93,0,0,1-1.79,1.51A3.12,3.12,0,0,1,196,167a1.57,1.57,0,0,1-1.44.87h-.06c-1.28,0-2.41-1-3.37-3l-.14-.29a3,3,0,0,1-1.75.62h0a2.85,2.85,0,0,1-2-1,2.93,2.93,0,0,1-.51-.75c-1-2,.57-4.14,2.25-5.72a29.33,29.33,0,0,0-2.88-9.43,46.16,46.16,0,0,0-13.58-16.24,238.32,238.32,0,0,0,3.58,25.1c6.91,35.09,13.86,51.11,14.69,70.19S179.9,255.09,165,255.09H107.3c-11.17,0-31.89-1.84-38.82-19.08-7-17.42-6.57-66.17-4.74-95.94a229.38,229.38,0,0,1,5.88-38.18,13.91,13.91,0,0,1-2.82-2.46,8.76,8.76,0,0,1-1.38-1.24,15,15,0,0,1-5.7-3.82c-5.57-6.09-5-13.36-3.47-25.21s4.37-14.61,9.59-17.24a9.08,9.08,0,0,1,1.72-.64c2.48-9.21,11.92-29.6,47.3-29.6M76.69,47.4a8.38,8.38,0,0,1,.88,0,11.26,11.26,0,0,1,4.15.85H82a14.62,14.62,0,0,1,6.53,1.63c4.62-5.63,11.06-8,22.44-8a161.83,161.83,0,0,1,19.18,1.45c21.35,2.64,29.56,6,33.83,13.41.25,0,.51.06.78.1-1.93-6.92-10-22.6-44.09-24.84-2.32-.15-4.52-.22-6.62-.22-23.36,0-33.21,9-37.32,15.7M114.86,6.67C95.77,6.67,80.32,11.75,69,21.76A51.91,51.91,0,0,0,55.39,40.63c-8.27,5.4-12.31,13.24-14,26.62-1.54,12-3.28,25.67,7.27,37.23a29.44,29.44,0,0,0,4.24,3.8,232.18,232.18,0,0,0-4.11,30.85c-.79,12.76-4.2,77.63,5.79,102.47,4.65,11.55,13.9,20,26.77,24.56,7.51,2.64,16,3.92,26,3.92H165c12.12,0,22.82-4.21,30.14-11.85,5.22-5.45,11.29-15.35,10.58-31.54-.56-12.7-3.38-23.77-6.95-37.79q-.78-3-1.59-6.25a16.6,16.6,0,0,0,12-8.6c.21-.4.41-.8.59-1.21a17.51,17.51,0,0,0,2.61-5.43,18.14,18.14,0,0,0-1.19-12.78,21.38,21.38,0,0,0-2.11-3.46A73.36,73.36,0,0,0,204.1,137a63.94,63.94,0,0,0-13-18.11,23.56,23.56,0,0,0,2.34-1.73c9.31-7.87,12.27-17,10.56-32.47-.36-3.29-.7-6-1.1-8.57v-.06l0-1.31a21.86,21.86,0,0,0-5.35-14.84,31.59,31.59,0,0,0-9.43-10,29.14,29.14,0,0,0-5.42-2.9,50.9,50.9,0,0,0-11-19.53c-11-12.23-27.66-19.14-49.39-20.55-2.53-.17-5-.25-7.47-.25Z" style="fill:#cecece"/><path d="M109.51,258.15c-30.1,0-41.32-12.69-45.43-23.33-9-23.4-3.14-90.37-2.44-97.93A229,229,0,0,1,67.84,102l-.06,0a22,22,0,0,1-7-5.21c-8.22-9.19-6.49-20.12-4.65-31.68,2-12.5,5.48-18.34,13.65-22.53C74.34,31,87.53,11.2,124.07,11.2c2.77,0,5.67.12,8.61.35,41.82,3.29,52,26.88,54.35,39.75a21.67,21.67,0,0,1,7.38,3.36,23.05,23.05,0,0,1,7.38,8.45,14.06,14.06,0,0,1,3.58,10.45l0,.65-.19.76c.37,2.75.62,5.77.87,9.54.87,13.09-1.42,19.57-9.07,25.65a19.86,19.86,0,0,1-6.56,3.33,16.82,16.82,0,0,1-3.42,3v.83a52.8,52.8,0,0,1,17.34,21.54A63,63,0,0,1,208.6,153a14,14,0,0,1,2.1,3.3,10.44,10.44,0,0,1,.44,7.56,9.82,9.82,0,0,1-2.11,3.56,8.43,8.43,0,0,1-.72,1.48,9.22,9.22,0,0,1-7.9,4.52h0a10.25,10.25,0,0,1-7-2.82c-.29-.05-.57-.12-.85-.19,1.29,6.73,2.57,12.63,3.76,18.11,2.87,13.29,5.15,23.79,5.15,35.41,0,20.82-13.46,34.27-34.27,34.27Z" style="fill:#c4b9aa"/><path d="M124.07,18.7c2.54,0,5.21.1,8,.32,41.8,3.3,47.58,27.78,48.13,38.24l.2.14a8.5,8.5,0,0,1,1.23.66,15.53,15.53,0,0,1,14,9.51,6.54,6.54,0,0,1,2.28,5.5l-.38,1.54c.48,3,.75,6.44,1,10.4.81,12.1-1.5,15.51-6.25,19.28a14.44,14.44,0,0,1-6.29,2.56,9.45,9.45,0,0,1-6.46,4.66c-.05,3.15-.08,6.42-.05,9.83a44.6,44.6,0,0,1,18,20.53,56.64,56.64,0,0,1,4.12,14.57,10.23,10.23,0,0,1,2.28,2.86,3,3,0,0,1,.18,2.14,2,2,0,0,1-1.86,1.47,3.12,3.12,0,0,1-.31,2.12,1.65,1.65,0,0,1-1.48.85h0c-1.29,0-2.39-1-3.26-3l-.13-.29a3.16,3.16,0,0,1-1.77.6h0a2.76,2.76,0,0,1-2-1,2.65,2.65,0,0,1-.49-.74c-.87-2,.76-4.06,2.52-5.61a28,28,0,0,0-2.48-9.32c-2-4.59-5.85-10.43-13-16.15a228.87,228.87,0,0,0,2.54,24.83c5.43,34.47,11.67,50.11,11.67,68.63s-12,26.77-26.77,26.77H109.51c-11.2,0-32-1.78-38.43-18.53-6.58-17-4.72-65-2-94.53a226.87,226.87,0,0,1,7.16-38.15,14.52,14.52,0,0,1-2.82-2.5,8.84,8.84,0,0,1-1.38-1.27,15,15,0,0,1-5.73-3.9c-5.54-6.19-4.73-13.53-2.83-25.51s4.93-14.78,10.4-17.39a9.83,9.83,0,0,1,1.8-.63c2.8-9.22,13-29.54,48.36-29.54M85.23,44.42c.26,0,.52,0,.79,0a11.39,11.39,0,0,1,4.37.93h.14a15,15,0,0,1,6.78,1.74c4.79-5.49,11.24-7.89,22.31-7.89a157.74,157.74,0,0,1,20.63,1.74c21.73,3,30,6.45,34,14,.27,0,.53.07.8.12-1.67-7-9.3-23-44.09-25.76q-4.26-.33-8-.33c-23.15,0-33.31,8.82-37.69,15.5M124.07,3.7c-19,0-34.52,5-46.12,14.89a53.41,53.41,0,0,0-14.1,18.69c-8.64,5.29-13,13.11-15.15,26.63-1.94,12.19-4.14,26,6.45,37.86a29.44,29.44,0,0,0,4.11,3.78,229.42,229.42,0,0,0-5.09,30.65C53,148.82,47.62,213,57.08,237.52,61.52,249,70.7,257.41,83.65,261.86c7.44,2.55,15.9,3.79,25.86,3.79h57.65c25,0,41.78-16.78,41.78-41.77,0-12.42-2.35-23.27-5.32-37-.43-2-.87-4-1.32-6.12a16.76,16.76,0,0,0,12.46-8.08c.25-.42.48-.84.69-1.28a17.26,17.26,0,0,0,2.8-5.2,17.93,17.93,0,0,0-.69-13,20.19,20.19,0,0,0-1.94-3.42,69.69,69.69,0,0,0-4.46-14,61.25,61.25,0,0,0-12.13-18,23.64,23.64,0,0,0,2.58-1.79c9.58-7.61,12.91-16.59,11.88-32-.22-3.3-.44-6.05-.73-8.6v-.06l.09-1.31A21.67,21.67,0,0,0,208,58.83a30.74,30.74,0,0,0-9.26-10.3,28.82,28.82,0,0,0-5.25-3A50.25,50.25,0,0,0,183,25.67c-10.83-12.58-27.56-19.85-49.74-21.6-3.13-.25-6.22-.37-9.19-.37Z" style="fill:#fff"/><g style="opacity:0.75"><path d="M175.51,58.31s.27-25.53-44.55-29.06S82,51.79,82,51.79l-7.34.91s4-37.88,57.39-33.68,48,43,48,43Z" style="fill:#373838;stroke:#212222;stroke-miterlimit:10"/><path d="M196.66,142.18a55.5,55.5,0,0,1,4.12,14.67,9.76,9.76,0,0,1,2.3,2.76,2,2,0,0,1,.14,1.48,1.28,1.28,0,0,1-1.2,1,1.77,1.77,0,0,1-.86-.19,4.23,4.23,0,0,1,0,2.65,1,1,0,0,1-.91.51c-1.39,0-2.17-1.74-2.46-2.4-.2-.45-.38-.93-.56-1.41a3.38,3.38,0,0,1-2.18,1.13,1.85,1.85,0,0,1-1.36-.66,1.77,1.77,0,0,1-.31-.49c-.76-1.69,1.39-3.83,2.62-4.87a28.72,28.72,0,0,0-2.59-10.06c-3.24-7.3-10.84-17.7-28.65-25.83l-1.71-.78,4.52-2.28.26,0a43.53,43.53,0,0,1,28.87,24.74Z" style="fill:#dd5837"/><path d="M165,119.69l2.76-1.4A42.17,42.17,0,0,1,196,142.48,54.41,54.41,0,0,1,200,157.26a10,10,0,0,1,2.33,2.65,1.09,1.09,0,0,1,.11.81c-.41,1.17-1.87.1-2.87-1.41,0,0,1.74,4.86.55,4.88-.65,0-1.18-.81-1.64-1.84s-.72-1.94-1-2.77c0,0-2.06,2.9-3.23,1.58a.62.62,0,0,1-.15-.22c-.63-1.41,2.7-4.11,2.7-4.11A27.59,27.59,0,0,0,194.14,146c-3.44-7.74-11.27-18.18-29.13-26.32m-3.91,0,3.42,1.57c17.55,8,25,18.19,28.18,25.33a28,28,0,0,1,2.48,9.32c-1.76,1.55-3.39,3.64-2.52,5.61a2.65,2.65,0,0,0,.49.74,2.76,2.76,0,0,0,2,1,3.26,3.26,0,0,0,1.8-.6l.13.29c.88,2,2,3,3.3,3a1.65,1.65,0,0,0,1.48-.85,3.12,3.12,0,0,0,.31-2.12h0a2,2,0,0,0,1.86-1.47,3,3,0,0,0-.18-2.14,10.23,10.23,0,0,0-2.28-2.86,56.64,56.64,0,0,0-4.12-14.57c-9.43-21.23-28.73-25.14-29.55-25.29l-.5-.1-.43.23-2.76,1.4-3.09,1.56h0Z" style="fill:#212222"/><path d="M174.12,58.9l4.21,48.38s9.2.78,13.94-3,7.06-7.18,6.25-19.28-1.65-19.43-8.44-24.23-16-1.86-16-1.86Z" style="fill:#373838;stroke:#212222;stroke-miterlimit:10"/><path d="M156,67.84c-4.81,8.26-1.61,19.29-1.61,19.29-.18,13.75,6.19,16.92,6.19,16.92,4.2,10.31,14.9,7.45,14.9,7.45,11.77,1.9,12.91-11.88,12.91-11.88,5.59-5.71,2.08-15.87,2.08-15.87,3.67-6.86-2.49-14.68-2.49-14.68-1.14-9.23-7.53-11.67-7.53-11.67-8.49-6.18-16.11.67-16.11.67C156.64,59.1,156,67.84,156,67.84Z" style="fill:#212222;stroke:#212222;stroke-miterlimit:10"/><path d="M109.51,250.65c-11.2,0-32-1.78-38.43-18.53-6.58-17-4.72-65-2-94.53,2.76-29.8,13.21-59.94,21.68-79.43,7.82-18,16.19-21.78,49.46-17.26s34.92,10.33,38.28,30c4.07,23.67-2.41,45.28,3.74,84.39,5.43,34.47,11.67,50.11,11.67,68.63s-12,26.77-26.77,26.77Z" style="fill:#dd5837;stroke:#212222;stroke-miterlimit:10"/><path d="M144.53,94c-5.89,0-10.07-7.07-7.54-9.29s11.77-2.2,15.07,0S150.41,94,144.53,94Z" style="fill:#212222;stroke:#212222;stroke-miterlimit:10"/><path d="M89.3,99.9c7.73.71,10.33-7.66,10.33-7.66,6.54-7,5.88-18.45,5.88-18.45,3.24-13.37-2.26-17.88-2.26-17.88-1.78-11-12.86-10.59-12.86-10.59C79.37,40.82,75.16,54,75.16,54c-6.74,4.33-5.59,15-5.59,15-5.1,5.86-.85,14.85-.85,14.85-1,9.26,4.73,13.07,4.73,13.07,6.92,7.93,15.87,3,15.87,3Z" style="fill:#212222;stroke:#212222;stroke-miterlimit:10"/><path d="M88.18,49.07s-8.8-2.81-14.27-.2-8.5,5.42-10.4,17.39S60.8,85.58,66.34,91.77s15.13,5.39,15.13,5.39C99.84,72.13,88.18,49.07,88.18,49.07Z" style="fill:#373838;stroke:#212222;stroke-miterlimit:10"/><path d="M97.52,53.74c-4-.5-8.49,2.69-8.3,6.17S91,89.38,91,89.38a6.82,6.82,0,0,0,6.47,6.45l28,1.78a9,9,0,0,0,8.49-6.22l4.36-15c2.1-2.54,11.44-1.68,14,2.49,0,0,1.13,11.73,2.34,15.25s2.5,5.54,5.3,5.71l26.65,1.66c2.54.16,4.85-1.81,5.55-4.7l5.8-23.71c.21-3.25-1.85-6.15-4.6-6.5l-34.7-4.35c-3.14-.41-6,2.11-6.34,5.61L152,74c-1.95-1.63-9-3.07-12.63-2.18a32.71,32.71,0,0,0,1.39-5.69c.33-2.63-2-6.86-5.45-7.29L97.5,53.72Z" style="fill:#fff;stroke:#101111;stroke-linecap:round;stroke-linejoin:round;stroke-width:0.800000011920929px"/><path d="M161.3,73.85c-2.73-.28-4.26-1-4.89-1.77a4.06,4.06,0,0,1,.23-4.19c.94-1.12,2.3-1,5-.66l27.18,3.29c2.24.27,3.57,1.07,4,1.62s.7,3-.2,3.71-1.85.94-4.09.72L161.3,73.84Z" style="fill:#212222"/><path d="M160.59,81.37c-2.36-.23-3.7-.84-4.29-1.56a4,4,0,0,1-.05-3.89c.74-1.12,2-1,4.44-.8l27.09,2.63c2.45.24,3.81,1,4.16,1.62s.23,3-.87,3.77-2.15.92-4.5.69l-26-2.5Z" style="fill:#212222"/><path d="M161,88.64c-2.22-.2-3.5-.75-4.07-1.44a3.91,3.91,0,0,1-.21-3.7c.65-1.07,1.82-1,4.16-.78l25.58,2.41c2.3.21,3.58,1,3.89,1.52s.13,2.89-.91,3.56-2,.86-4.22.66L161,88.61Z" style="fill:#212222"/><path d="M161.85,95.86c-2-.17-3.17-.72-3.7-1.39a4.21,4.21,0,0,1-.21-3.7c.61-1.07,1.4-1,2.39-.92L186.52,92c.65.06,1.78.55,1.9,1.51s0,2.87-.91,3.56-1.85.89-3.81.71l-21.87-1.94Z" style="fill:#212222"/><path d="M99.93,66.18C96.76,65.83,95,65,94.28,64.06a4.68,4.68,0,0,1,.43-4.89c1.15-1.31,2.76-1.14,5.94-.7l31.19,3.91c2.51.36,3.71.45,4.46,1.69s.5,4-.57,4.79-2.16,1.07-4.67.79L99.93,66.2Z" style="fill:#212222"/><path d="M93.85,73a4.55,4.55,0,0,1,.1-4.49c.93-1.28,2.36-1.17,5.24-.87l31,3.31c2.74.28,4.17.56,4.57,1.87s0,3.46-1.24,4.26-2.49,1-5.12.76l-29.58-3C96.05,74.57,94.5,73.85,93.85,73Z" style="fill:#212222"/><path d="M98.91,83.14c-2.54-.24-4-.89-4.65-1.66a4.27,4.27,0,0,1-.1-4.22C95,76,96.34,76.14,99,76.4l29.12,2.9c2.58.26,3.82.26,4.27,1.74a3.52,3.52,0,0,1-1.24,4c-1.2.76-2.34,1-4.77.75l-27.51-2.6Z" style="fill:#212222"/><path d="M99.56,91.52c-2.29-.19-3.59-.81-4.18-1.57a4.66,4.66,0,0,1-.1-4.19c.73-1.23,1.65-1.15,2.79-1.05l29.69,2.52c.76.08,2,.62,2,1.68s-.12,3.19-1.22,4-2.12,1-4.31.81L99.56,91.53Z" style="fill:#212222"/><path d="M133,106.94s11.66-10.9,17.65-.42" style="fill:none;stroke:#111;stroke-linecap:round;stroke-miterlimit:10;stroke-width:1.5px"/><path d="M91.83,113.59a32.28,32.28,0,0,0,8.93,21.84c7.15,7.64,17,11.78,24.51,11.37,12.57-.7,20.69-4.67,25.34-9.24,7.6-7.47,7-14.16,7-14.16s-5.85-2-7.12-4.62,6.31-.54,6.31-.54,2.44-12,5.48-12.65,1.14,9.3,1.14,9.3,3.77.23,4.82,3.36c.94,2.8-2.68,5.17-5.07,5.8,0,0-.32,7.7-7.68,15.88-6.8,7.54-20.63,13.1-34.13,12-12.11-1-31-9.94-36.09-32.73" style="fill:#dd5837"/><path d="M124.83,152.72c-1.18,0-2.36-.05-3.52-.15-11.07-.91-31.25-8.94-36.68-33.24l1.29-.3c5.27,23.55,24.79,31.33,35.5,32.22,12.59,1,26.39-3.8,33.57-11.77S162.5,124.1,162.5,124l0-.49.48-.12a7.68,7.68,0,0,0,4.41-3.07,2.25,2.25,0,0,0,.2-1.88c-.89-2.66-4.09-2.9-4.23-2.91l-.75,0,.14-.74c.56-3,.94-7.53,0-8.44a.36.36,0,0,0-.36-.08c-1.8.38-4,7.32-5,12.13l-.15.7-.68-.19c-2.54-.7-5.19-1-5.62-.6,0,0,0,.08.09.22.94,2,5.17,3.75,6.73,4.27l.41.14,0,.43c0,.29.54,7.09-7.2,14.7-3.93,3.86-11.6,8.63-25.77,9.42-8.07.44-18.12-4.21-25-11.57a32.6,32.6,0,0,1-9.11-22.33l1.32.06A32,32,0,0,0,101.25,135c6.65,7.1,16.3,11.57,24,11.15,13.76-.76,21.14-5.34,24.91-9,6.21-6.1,6.78-11.69,6.81-13.22-1.44-.53-5.89-2.35-7.06-4.8a1.44,1.44,0,0,1,.09-1.64c1-1.15,4.34-.51,6.31,0,.67-3.07,2.83-11.84,5.85-12.48a1.63,1.63,0,0,1,1.57.44c1.55,1.52.85,6.81.49,9a5.89,5.89,0,0,1,4.67,3.71,3.61,3.61,0,0,1-.29,2.93,8.72,8.72,0,0,1-4.79,3.59c-.19,1.84-1.33,8.62-7.81,15.81C149.21,147.89,136.79,152.72,124.83,152.72Z" style="fill:#212222"/><rect x="81.24" y="113.42" width="15.44" height="9.09" transform="translate(-32.92 34.45) rotate(-18.56)" style="fill:#dd5837"/></g><g style="opacity:0.2"><line x1="156.56" y1="144.83" x2="183.12" y2="118.28" style="fill:none;stroke:#040000;stroke-linecap:round;stroke-miterlimit:10"/><line x1="142.92" y1="158.48" x2="150.64" y2="150.75" style="fill:none;stroke:#040000;stroke-linecap:round;stroke-miterlimit:10"/></g><g style="opacity:0.2"><line x1="93.85" y1="175.75" x2="111.12" y2="158.48" style="fill:none;stroke:#040000;stroke-linecap:round;stroke-miterlimit:10"/><line x1="80.2" y1="189.4" x2="87.93" y2="181.67" style="fill:none;stroke:#040000;stroke-linecap:round;stroke-miterlimit:10"/></g><g style="opacity:0.2"><line x1="152" y1="218.34" x2="169.28" y2="201.06" style="fill:none;stroke:#040000;stroke-linecap:round;stroke-miterlimit:10"/><line x1="138.36" y1="231.98" x2="146.08" y2="224.26" style="fill:none;stroke:#040000;stroke-linecap:round;stroke-miterlimit:10"/></g><g style="opacity:0.2"><line x1="106.85" y1="31.23" x2="117.53" y2="20.54" style="fill:none;stroke:#040000;stroke-linecap:round;stroke-miterlimit:10"/><line x1="77.93" y1="60.14" x2="100.93" y2="37.15" style="fill:none;stroke:#040000;stroke-linecap:round;stroke-miterlimit:10"/></g><g style="opacity:0.2"><line x1="113.26" y1="101.35" x2="123.37" y2="91.24" style="fill:none;stroke:#040000;stroke-linecap:round;stroke-miterlimit:10"/><line x1="102.88" y1="111.74" x2="107.34" y2="107.27" style="fill:none;stroke:#040000;stroke-linecap:round;stroke-miterlimit:10"/></g><path d="M503.55,53.79a6.62,6.62,0,1,1-5.11.66A6.47,6.47,0,0,1,503.55,53.79ZM518.62,1.1a28.65,28.65,0,0,1,8,3.34A19.08,19.08,0,0,1,532,9.33a14.59,14.59,0,0,1,2.62,6,15.43,15.43,0,0,1-.32,6.76l-.25.94a16.38,16.38,0,0,1-1.49,3.77,14.18,14.18,0,0,1-2.61,3.29,26.32,26.32,0,0,1-4.21,3.18c-1.72,1.07-3.81,2.26-6.29,3.55-1.55.81-2.81,1.53-3.76,2.16a13.23,13.23,0,0,0-2.32,1.86A6.62,6.62,0,0,0,512,42.81a16.63,16.63,0,0,0-.81,2.39,3.78,3.78,0,0,1-2.31,2.69,5.92,5.92,0,0,1-3.75.2,6.55,6.55,0,0,1-3.4-2,4,4,0,0,1-.65-3.78,29,29,0,0,1,1.32-4,14.12,14.12,0,0,1,1.89-3.2,14.3,14.3,0,0,1,3-2.77A38.84,38.84,0,0,1,512,29.61c2.17-1.07,3.92-2,5.26-2.77a21.1,21.1,0,0,0,3.19-2.22,8,8,0,0,0,1.73-2.06,10.71,10.71,0,0,0,.87-2.28l.11-.43a6.7,6.7,0,0,0,.17-2.7,6.2,6.2,0,0,0-1-2.55,8.17,8.17,0,0,0-2.43-2.24,14.86,14.86,0,0,0-4.17-1.69,16.64,16.64,0,0,0-6.25-.55,24.89,24.89,0,0,0-5.57,1.36,4.23,4.23,0,0,1-3.58-.07A5,5,0,0,1,498,8.64a5.42,5.42,0,0,1-.24-3.76,4.12,4.12,0,0,1,2.6-2.74A26.86,26.86,0,0,1,508.7.09,29.06,29.06,0,0,1,518.62,1.1Z" style="fill:#fff"/></g></g></svg>