<svg xmlns="http://www.w3.org/2000/svg" xmlns:xlink="http://www.w3.org/1999/xlink" viewBox="0 0 215.11 179"><defs><linearGradient id="무제_그라디언트_241" x1="87.55" y1="801.33" x2="122.75" y2="766.13" gradientTransform="matrix(1, 0, 0, -1, 0, 872.92)" gradientUnits="userSpaceOnUse"><stop offset="0" stop-color="#d6d6d6"/><stop offset="1" stop-color="#79797a"/></linearGradient></defs><g id="레이어_2" data-name="레이어 2"><g id="레이어_1-2" data-name="레이어 1"><g id="b"><path d="M23.89,71.83A1,1,0,0,1,23.36,73C17.63,75.73,10.44,81.92,2,91.38a1,1,0,0,1-1.42.08,1.12,1.12,0,0,1-.3-.5,1,1,0,0,1,.22-.91c8.63-9.66,16-16,22-18.87a1,1,0,0,1,.76,0,1,1,0,0,1,.58.51,1.46,1.46,0,0,1,.07.19Z" style="fill:#fff"/><path d="M.52,90.89a.72.72,0,0,1,.17-.68c8.61-9.63,16-16,21.92-18.8a.7.7,0,0,1,1,.49.73.73,0,0,1-.4.86c-5.75,2.77-13,9-21.45,18.46a.74.74,0,0,1-1,.06.7.7,0,0,1-.23-.37M0,91H0a1.25,1.25,0,0,0,.38.63,1.21,1.21,0,0,0,.91.31,1.25,1.25,0,0,0,.86-.41C10.61,82.12,17.76,76,23.46,73.22a1.24,1.24,0,0,0,.67-1.43,1.13,1.13,0,0,0-.08-.24,1.21,1.21,0,0,0-.71-.64,1.19,1.19,0,0,0-1,0C16.39,73.84,9,80.2.31,89.87A1.29,1.29,0,0,0,0,91H0Z" style="fill:#101111"/><path d="M142.39,8.71v2.1l-10.54,4.4,4,8.81-10.54,4.59,6.9-5.89-5.56-9.43,9.2-4.21-.46-3.25a89.12,89.12,0,1,0,7,2.88Z" style="fill:#c9c9c9;stroke:#222;stroke-miterlimit:10"/><path d="M139.64,89.18A34.49,34.49,0,1,1,105.15,54.7a34.49,34.49,0,0,1,34.49,34.48Z" style="fill:#161616;stroke:#222;stroke-miterlimit:10"/><path d="M130,89.18a24.89,24.89,0,1,1-24.89-24.89A24.89,24.89,0,0,1,130,89.18Z" style="stroke:#222;stroke-miterlimit:10;fill:url(#무제_그라디언트_241)"/><path d="M214.38,81a1,1,0,0,1-1.25-.18c-4.28-4.69-12.28-9.8-23.77-15.19a1,1,0,0,1-.51-.56,1,1,0,0,1,0-.77,1,1,0,0,1,1.33-.48c11.73,5.49,19.93,10.76,24.39,15.65a1,1,0,0,1,.26.72,1,1,0,0,1-.33.7.83.83,0,0,1-.16.12Z" style="fill:#fff"/><path d="M189.41,64.1a.72.72,0,0,1,.7,0C201.8,69.54,210,74.8,214.42,79.66a.76.76,0,0,1,0,1.06.57.57,0,0,1-.13.08.72.72,0,0,1-.93-.14C209,76,201,70.82,189.46,65.42a.74.74,0,0,1-.36-1,.67.67,0,0,1,.29-.33m-.26-.44h0a1.34,1.34,0,0,0-.49.54,1.23,1.23,0,0,0,0,1,1.21,1.21,0,0,0,.64.71c11.47,5.37,19.43,10.45,23.69,15.13a1.25,1.25,0,0,0,1.56.23,1,1,0,0,0,.2-.15,1.23,1.23,0,0,0,.41-.86,1.22,1.22,0,0,0-.32-.91c-4.48-4.91-12.71-10.2-24.46-15.7a1.28,1.28,0,0,0-1.17.06h0Z" style="fill:#101111"/></g><ellipse cx="102.64" cy="34.4" rx="6.24" ry="4.13" style="fill:#fff;stroke:#0f1010;stroke-miterlimit:10"/><ellipse cx="94.56" cy="23.53" rx="3.26" ry="4.18" style="fill:#fff;stroke:#0f1010;stroke-miterlimit:10"/><ellipse cx="108.28" cy="22.08" rx="3.26" ry="4.18" style="fill:#fff;stroke:#0f1010;stroke-miterlimit:10"/></g></g></svg>