<svg xmlns="http://www.w3.org/2000/svg" viewBox="0 0 169.76 130.69"><g id="레이어_2" data-name="레이어 2"><g id="레이어_1-2" data-name="레이어 1"><path d="M95.21,2.11,50.81,33.93H12.25A12.26,12.26,0,0,0,0,46.19V84.51A12.25,12.25,0,0,0,12.25,96.76H50.81l44.4,31.83a11.15,11.15,0,0,0,17.65-9.07V11.17A11.15,11.15,0,0,0,95.21,2.11Z" style="fill:#fff"/><path d="M133.23,96a5,5,0,0,1-3.54-8.53,31.25,31.25,0,0,0,0-44.14,5,5,0,0,1,7.08-7.07,41.27,41.27,0,0,1,0,58.28A5,5,0,0,1,133.23,96Z" style="fill:#fff"/><path d="M148.78,108.91a5,5,0,0,1-3.53-8.54,49.53,49.53,0,0,0,0-70.05,5,5,0,1,1,7.07-7.07,59.52,59.52,0,0,1,0,84.19A5,5,0,0,1,148.78,108.91Z" style="fill:#fff"/></g></g></svg>